{"glyphs":{"0":{"ha":694,"x_min":42,"x_max":653,"o":"m 653 474 q 569 122 653 256 q 347 -12 485 -12 q 126 122 210 -12 q 42 474 42 256 q 126 826 42 693 q 347 960 210 960 q 569 826 485 960 q 653 474 653 693 m 472 212 q 494 259 472 212 q 517 474 517 307 q 472 735 517 640 q 347 831 426 831 q 223 735 268 831 q 178 474 178 640 q 223 212 178 307 q 347 117 268 117 q 472 212 426 117 z "},"1":{"ha":694,"x_min":281,"x_max":417,"o":"m 417 947 l 417 0 l 281 0 l 281 947 l 417 947 z "},"2":{"ha":694,"x_min":47,"x_max":647,"o":"m 647 129 l 647 0 l 47 0 l 47 10 q 350 403 274 285 q 376 446 364 425 q 428 551 414 510 q 443 649 443 593 q 397 776 443 726 q 281 826 351 826 q 67 699 167 826 l 67 869 q 290 960 179 960 q 499 877 418 960 q 579 664 579 794 q 515 440 579 553 q 285 129 450 326 l 647 129 z "},"3":{"ha":694,"x_min":89,"x_max":589,"o":"m 113 790 l 113 919 q 294 960 194 960 q 497 892 421 960 q 574 713 574 825 q 546 585 574 633 q 453 500 518 536 q 554 417 519 479 q 589 275 589 354 q 506 68 589 149 q 290 -12 422 -12 q 89 42 194 -12 l 89 189 q 300 117 196 117 q 411 158 369 117 q 453 268 453 199 q 400 387 453 342 q 250 426 347 432 l 250 551 q 390 588 343 551 q 438 689 438 624 q 393 792 438 754 q 274 831 349 831 q 113 790 203 831 z "},"4":{"ha":694,"x_min":15,"x_max":654,"o":"m 553 960 l 553 433 l 654 433 l 654 311 l 553 311 l 553 0 l 417 0 l 417 311 l 15 311 l 15 374 l 494 960 l 553 960 m 414 703 l 197 433 l 417 433 l 417 703 l 414 703 z "},"5":{"ha":694,"x_min":69,"x_max":608,"o":"m 561 947 l 561 825 l 264 825 l 264 588 q 515 511 421 597 q 608 290 608 425 q 521 73 608 158 q 299 -12 433 -12 q 69 46 185 -12 l 69 186 q 276 117 172 117 q 415 167 357 117 q 472 288 472 218 q 381 438 472 385 q 140 454 289 490 l 140 947 l 561 947 z "},"6":{"ha":694,"x_min":61,"x_max":646,"o":"m 440 960 l 522 856 q 341 702 421 797 q 232 508 261 607 q 381 547 307 547 q 570 468 494 547 q 646 271 646 389 q 563 72 646 156 q 367 -12 481 -12 q 146 81 231 -12 q 61 324 61 174 q 160 671 61 504 q 440 960 258 838 m 203 368 q 228 188 178 258 q 358 117 278 117 q 468 160 426 117 q 510 272 510 203 q 465 376 510 335 q 353 418 421 418 q 278 408 310 418 q 203 368 247 397 z "},"7":{"ha":694,"x_min":68,"x_max":681,"o":"m 681 947 l 251 -12 l 131 40 l 478 818 l 68 818 l 68 947 l 681 947 z "},"8":{"ha":694,"x_min":44,"x_max":650,"o":"m 650 256 q 563 65 650 142 q 350 -12 476 -12 q 133 65 221 -12 q 44 257 44 143 q 179 483 44 404 q 67 688 67 565 q 150 882 67 804 q 357 960 233 960 q 556 881 476 960 q 636 685 636 803 q 518 483 636 561 q 616 390 582 450 q 650 256 650 329 m 500 688 q 459 790 500 749 q 354 831 418 831 q 244 792 286 831 q 203 690 203 754 q 247 589 203 632 q 351 546 292 546 q 456 588 413 546 q 500 688 500 631 m 514 267 q 468 374 514 332 q 350 417 422 417 q 227 375 274 417 q 181 267 181 333 q 228 159 181 201 q 347 117 275 117 q 470 160 426 117 q 514 267 514 204 z "},"9":{"ha":694,"x_min":50,"x_max":640,"o":"m 260 -12 l 176 88 q 370 258 294 164 q 465 443 446 353 q 318 403 399 403 q 128 483 206 403 q 50 679 50 564 q 131 875 50 790 q 339 960 213 960 q 555 862 469 960 q 640 614 640 764 q 533 265 640 442 q 260 -12 426 89 m 186 681 q 233 576 186 619 q 347 532 281 532 q 493 583 419 532 q 500 660 500 617 q 453 780 500 729 q 342 831 407 831 q 230 788 274 831 q 186 681 186 746 z "},"�":{"ha":386,"x_min":0,"x_max":0,"o":""}," ":{"ha":386,"x_min":0,"x_max":0,"o":""},"!":{"ha":376,"x_min":106,"x_max":272,"o":"m 110 754 q 188 960 110 960 q 265 754 265 960 q 257 606 265 663 l 222 367 q 188 279 210 279 q 153 367 165 279 l 118 606 q 110 754 110 663 m 130 130 q 142 142 130 130 q 189 154 154 154 q 248 130 224 154 q 272 71 272 106 q 248 12 272 36 q 189 -12 224 -12 q 130 12 154 -12 q 106 71 106 36 q 130 130 106 106 z "},"\"":{"ha":492,"x_min":67,"x_max":425,"o":"m 335 642 l 303 832 l 303 994 l 425 994 l 425 832 l 393 642 l 335 642 m 99 642 l 67 832 l 67 994 l 189 994 l 189 832 l 157 642 l 99 642 z "},"#":{"ha":811,"x_min":1,"x_max":811,"o":"m 272 857 l 372 857 l 315 586 l 585 586 l 642 857 l 742 857 l 685 586 l 811 586 l 811 490 l 665 490 l 615 254 l 811 254 l 811 158 l 596 158 l 539 -112 l 439 -112 l 496 158 l 226 158 l 169 -112 l 69 -112 l 126 158 l 1 158 l 1 254 l 146 254 l 196 490 l 1 490 l 1 586 l 215 586 l 272 857 m 296 490 l 246 254 l 515 254 l 565 490 l 296 490 z "},"$":{"ha":753,"x_min":71,"x_max":697,"o":"m 653 828 l 653 678 q 559 744 617 714 q 446 788 501 775 l 446 513 q 631 410 564 481 q 697 244 697 339 q 631 77 697 154 q 446 -12 565 0 l 446 -164 l 332 -164 l 332 -12 q 71 85 228 -7 l 71 253 q 193 161 140 190 q 332 113 246 132 l 332 413 q 139 513 206 446 q 72 656 72 581 q 142 824 72 757 q 332 910 211 892 l 332 960 l 446 960 l 446 910 q 555 882 494 906 q 653 828 615 858 m 332 550 l 332 788 q 243 749 278 781 q 208 674 208 717 q 332 550 208 592 m 446 364 l 446 114 q 564 233 564 142 q 537 308 564 276 q 446 364 510 339 z "},"%":{"ha":944,"x_min":35,"x_max":910,"o":"m 697 308 q 620 276 653 308 q 588 199 588 243 q 620 121 588 153 q 697 89 653 89 q 775 121 743 89 q 807 199 807 153 q 775 276 807 243 q 697 308 743 308 m 697 411 q 847 349 783 411 q 910 199 910 286 q 847 49 910 111 q 697 -14 783 -14 q 547 48 610 -14 q 485 199 485 110 q 547 349 485 286 q 697 411 610 411 m 836 960 l 213 -14 l 108 -14 l 732 960 l 836 960 m 247 958 q 397 896 333 958 q 460 746 460 833 q 397 596 460 658 q 247 533 333 533 q 97 595 160 533 q 35 746 35 657 q 97 896 35 833 q 247 958 160 958 m 247 856 q 170 823 203 856 q 138 746 138 790 q 170 668 138 700 q 247 636 203 636 q 325 668 293 636 q 357 746 357 700 q 325 823 357 790 q 247 856 293 856 z "},"&":{"ha":868,"x_min":39,"x_max":861,"o":"m 688 471 l 824 471 q 669 222 781 347 l 861 0 l 686 0 l 578 129 q 278 -12 421 -12 q 110 53 181 -12 q 39 213 39 118 q 263 492 39 363 q 156 711 156 604 q 222 869 156 810 q 399 929 289 929 q 562 870 497 929 q 626 724 626 811 q 585 594 626 654 q 453 471 544 535 l 586 318 q 688 471 647 379 m 494 224 l 340 401 q 214 305 253 346 q 175 213 175 264 q 212 142 178 172 q 292 113 246 113 q 494 224 383 113 m 289 724 q 376 563 289 647 q 474 643 449 608 q 500 717 500 678 q 469 786 500 758 q 392 814 439 814 q 318 788 347 814 q 289 724 289 763 z "},"’":{"ha":304,"x_min":64,"x_max":240,"o":"m 82 618 l 82 644 q 131 710 121 678 q 138 793 140 743 q 84 819 104 797 q 64 875 64 842 q 88 938 64 915 q 147 960 111 960 q 215 922 189 960 q 240 831 240 885 q 199 697 240 753 q 82 618 158 640 z "},"(":{"ha":449,"x_min":89,"x_max":432,"o":"m 432 964 q 232 322 232 697 q 432 -319 232 -53 l 358 -319 q 161 -24 233 -196 q 89 322 89 147 q 161 669 89 497 q 358 964 233 840 l 432 964 z "},")":{"ha":449,"x_min":17,"x_max":360,"o":"m 17 -319 q 217 322 217 -53 q 17 964 217 697 l 90 964 q 288 669 215 840 q 360 322 360 497 q 288 -24 360 147 q 90 -319 215 -196 l 17 -319 z "},"*":{"ha":579,"x_min":6,"x_max":575,"o":"m 246 713 l 68 774 q 23 806 39 783 q 22 854 7 828 q 66 876 42 879 q 114 853 90 874 l 253 732 q 281 747 268 744 l 246 928 q 251 983 240 957 q 292 1008 261 1008 q 332 984 322 1008 q 336 928 342 960 l 301 747 q 329 731 319 743 l 468 851 q 515 874 490 871 q 560 851 539 878 q 559 804 575 825 q 513 772 543 783 l 339 713 q 339 681 342 704 l 513 621 q 558 589 542 611 q 558 540 574 567 q 515 518 539 515 q 467 542 490 521 l 328 663 q 300 649 314 653 l 335 467 q 330 413 340 438 q 289 386 319 388 q 244 467 231 388 l 279 649 q 253 665 263 656 l 113 543 q 65 521 90 524 q 21 543 40 518 q 22 590 6 569 q 68 622 38 611 l 244 683 q 246 713 239 697 z "},"+":{"ha":811,"x_min":78,"x_max":733,"o":"m 349 818 l 463 818 l 463 547 l 733 547 l 733 433 l 463 433 l 463 163 l 349 163 l 349 433 l 78 433 l 78 547 l 349 547 l 349 818 z "},",":{"ha":304,"x_min":64,"x_max":244,"o":"m 82 -164 l 82 -137 q 128 -70 115 -115 q 132 14 142 -25 q 83 36 101 15 q 64 92 64 57 q 87 149 64 126 q 146 171 110 171 q 217 134 190 171 q 244 36 244 97 q 202 -85 244 -28 q 82 -164 160 -142 z "},"-":{"ha":449,"x_min":56,"x_max":393,"o":"m 393 371 l 393 242 l 56 242 l 56 371 l 393 371 z "},".":{"ha":304,"x_min":68,"x_max":235,"o":"m 92 130 q 105 142 92 130 q 151 154 117 154 q 210 130 186 154 q 235 71 235 106 q 210 12 235 36 q 151 -12 186 -12 q 92 12 117 -12 q 68 71 68 36 q 92 130 68 106 z "},"/":{"ha":390,"x_min":11,"x_max":381,"o":"m 11 -12 l 283 960 l 381 960 l 108 -12 l 11 -12 z "},":":{"ha":304,"x_min":68,"x_max":235,"o":"m 92 612 q 105 624 92 612 q 151 636 117 636 q 210 612 186 636 q 235 553 235 588 q 210 494 235 518 q 151 469 186 469 q 92 494 117 469 q 68 553 68 518 q 92 612 68 588 m 92 130 q 105 142 92 130 q 151 154 117 154 q 210 130 186 154 q 235 71 235 106 q 210 12 235 36 q 151 -12 186 -12 q 92 12 117 -12 q 68 71 68 36 q 92 130 68 106 z "},";":{"ha":304,"x_min":67,"x_max":243,"o":"m 85 -160 l 85 -133 q 133 -67 124 -100 q 140 15 143 -35 q 87 42 107 19 q 67 97 67 64 q 90 160 67 138 q 150 182 114 182 q 217 144 192 182 q 243 53 243 107 q 202 -81 243 -25 q 85 -160 161 -137 m 210 612 q 223 600 210 612 q 235 553 235 588 q 210 494 235 518 q 151 469 186 469 q 92 494 117 469 q 68 553 68 518 q 92 612 68 588 q 151 636 117 636 q 210 612 186 636 z "},"<":{"ha":811,"x_min":76,"x_max":735,"o":"m 76 435 l 76 549 l 735 829 l 735 708 l 213 492 l 735 275 l 735 154 l 76 435 z "},"=":{"ha":811,"x_min":78,"x_max":733,"o":"m 78 699 l 733 699 l 733 585 l 78 585 l 78 699 m 78 396 l 733 396 l 733 282 l 78 282 l 78 396 z "},">":{"ha":811,"x_min":76,"x_max":735,"o":"m 735 435 l 76 154 l 76 275 l 599 492 l 76 708 l 76 829 l 735 549 l 735 435 z "},"?":{"ha":463,"x_min":111,"x_max":403,"o":"m 114 826 l 179 960 q 347 899 292 961 q 403 758 403 836 q 367 610 403 689 q 290 476 332 532 q 217 355 249 419 q 193 243 186 290 q 111 371 111 283 q 150 499 111 433 q 228 627 189 565 q 267 742 267 689 q 242 809 267 783 q 175 835 217 835 q 114 826 160 835 m 155 130 q 167 142 155 130 q 214 154 179 154 q 273 130 249 154 q 297 71 297 106 q 273 12 297 36 q 214 -12 249 -12 q 155 12 179 -12 q 131 71 131 36 q 155 130 131 106 z "},"@":{"ha":1403,"x_min":75,"x_max":1363,"o":"m 1238 13 l 1363 13 q 761 -292 1178 -292 q 258 -129 442 -292 q 75 318 75 33 q 97 503 75 410 q 171 689 119 596 q 298 853 222 782 q 490 968 374 924 q 746 1013 606 1013 q 1163 863 999 1013 q 1328 483 1328 714 q 1270 249 1328 363 q 1118 67 1213 136 q 922 -3 1024 -3 q 788 111 788 -3 q 582 -1 690 -1 q 404 85 475 -1 q 333 306 333 172 q 443 601 333 468 q 686 735 553 735 q 890 610 815 735 l 914 715 l 1036 715 l 922 192 q 967 108 904 108 q 1031 133 990 108 q 1117 201 1072 157 q 1194 321 1161 244 q 1226 485 1226 397 q 1088 792 1226 669 q 740 914 950 914 q 337 748 497 914 q 176 329 176 582 q 331 -55 176 82 q 763 -192 485 -192 q 1051 -136 929 -192 q 1238 13 1172 -81 m 460 296 q 501 153 460 207 q 610 99 543 99 q 776 205 700 99 q 851 439 851 311 q 809 583 851 529 q 694 636 767 636 q 532 531 604 636 q 460 296 460 426 z "},"A":{"ha":926,"x_min":0,"x_max":926,"o":"m 503 953 l 926 0 l 788 0 l 661 279 l 258 279 l 139 0 l 0 0 l 407 953 l 503 953 m 453 744 l 311 401 l 606 401 l 453 744 z "},"B":{"ha":782,"x_min":104,"x_max":754,"o":"m 104 0 l 104 947 l 379 947 q 597 876 522 947 q 671 706 671 804 q 526 503 671 561 l 526 500 q 694 415 633 481 q 754 253 754 349 q 674 76 754 151 q 429 0 593 0 l 104 0 m 240 825 l 240 542 l 331 542 q 531 693 531 542 q 365 825 531 825 l 240 825 m 240 419 l 240 122 l 411 122 q 567 166 521 122 q 614 272 614 210 q 561 379 614 339 q 404 419 508 419 l 240 419 z "},"C":{"ha":983,"x_min":67,"x_max":921,"o":"m 911 882 l 911 736 q 585 835 742 835 q 315 731 422 835 q 207 472 207 628 q 313 213 207 313 q 590 113 419 113 q 921 219 756 113 l 921 71 q 578 -12 761 -12 q 349 33 451 -12 q 188 149 247 78 q 98 301 129 221 q 67 460 67 382 q 213 818 67 676 q 586 960 360 960 q 911 882 725 960 z "},"D":{"ha":1042,"x_min":106,"x_max":978,"o":"m 106 0 l 106 947 l 474 947 q 699 905 600 947 q 858 794 799 863 q 947 643 917 725 q 978 474 978 561 q 839 141 978 282 q 475 0 700 0 l 106 0 m 242 825 l 242 122 l 458 122 q 615 148 546 122 q 725 212 685 174 q 792 300 765 250 q 828 392 819 350 q 838 474 838 435 q 739 726 838 626 q 451 825 640 825 l 242 825 z "},"E":{"ha":694,"x_min":104,"x_max":654,"o":"m 642 947 l 642 825 l 240 825 l 240 539 l 628 539 l 628 417 l 240 417 l 240 122 l 654 122 l 654 0 l 104 0 l 104 947 l 642 947 z "},"F":{"ha":651,"x_min":106,"x_max":611,"o":"m 611 947 l 611 825 l 242 825 l 242 563 l 611 563 l 611 440 l 242 440 l 242 0 l 106 0 l 106 947 l 611 947 z "},"G":{"ha":1028,"x_min":69,"x_max":935,"o":"m 935 467 l 935 65 q 574 -12 758 -12 q 213 124 356 -12 q 69 468 69 260 q 215 819 69 678 q 578 960 361 960 q 733 943 661 960 q 915 879 804 926 l 915 742 q 575 835 746 835 q 315 731 421 835 q 210 472 210 626 q 317 213 210 314 q 593 113 425 113 q 799 150 681 113 l 799 344 l 617 344 l 617 467 l 935 467 z "},"H":{"ha":1013,"x_min":104,"x_max":907,"o":"m 907 947 l 907 0 l 771 0 l 771 413 l 240 413 l 240 0 l 104 0 l 104 947 l 240 947 l 240 535 l 771 535 l 771 947 l 907 947 z "},"I":{"ha":347,"x_min":106,"x_max":242,"o":"m 242 947 l 242 0 l 106 0 l 106 947 l 242 947 z "},"J":{"ha":347,"x_min":-86,"x_max":242,"o":"m 242 947 l 242 -11 q 179 -236 242 -153 q -19 -319 117 -319 q -61 -317 -33 -319 l -86 -190 l -51 -190 q 78 -142 50 -190 q 106 29 106 -94 l 106 947 l 242 947 z "},"K":{"ha":911,"x_min":104,"x_max":910,"o":"m 396 499 l 910 0 l 722 0 l 240 468 l 240 0 l 104 0 l 104 947 l 240 947 l 240 514 l 639 947 l 808 947 l 396 499 z "},"L":{"ha":681,"x_min":103,"x_max":667,"o":"m 239 947 l 239 122 l 667 122 l 667 0 l 103 0 l 103 947 l 239 947 z "},"M":{"ha":1085,"x_min":101,"x_max":985,"o":"m 985 947 l 985 0 l 849 0 l 849 738 l 846 738 l 554 371 l 532 371 l 240 738 l 238 738 l 238 0 l 101 0 l 101 947 l 229 947 l 543 558 l 858 947 l 985 947 z "},"N":{"ha":1085,"x_min":103,"x_max":981,"o":"m 981 947 l 981 0 l 864 0 l 231 729 l 231 0 l 103 0 l 103 947 l 211 947 l 853 214 l 853 947 l 981 947 z "},"O":{"ha":1143,"x_min":63,"x_max":1081,"o":"m 63 474 q 204 818 63 676 q 571 960 346 960 q 940 819 799 960 q 1081 474 1081 678 q 940 131 1081 274 q 568 -12 800 -12 q 203 131 343 -12 q 63 474 63 274 m 308 732 q 255 681 308 732 q 203 474 203 629 q 308 215 203 318 q 571 113 413 113 q 835 215 731 113 q 940 474 940 318 q 835 732 940 629 q 571 835 731 835 q 308 732 413 835 z "},"P":{"ha":708,"x_min":97,"x_max":694,"o":"m 97 947 l 393 947 q 618 871 542 947 q 694 675 694 794 q 613 483 694 557 q 375 410 532 410 l 233 410 l 233 0 l 97 0 l 97 947 m 233 825 l 233 532 l 388 532 q 509 572 464 532 q 554 681 554 611 q 516 783 554 742 q 393 825 478 825 l 233 825 z "},"Q":{"ha":1143,"x_min":63,"x_max":1083,"o":"m 689 0 l 689 1 l 689 -1 q 894 -71 818 -56 q 1043 -68 969 -86 l 1047 -72 l 925 -193 q 460 0 699 -176 q 173 165 283 33 q 63 474 63 297 q 208 824 63 688 q 585 960 354 960 q 940 819 797 960 q 1083 471 1083 679 q 972 166 1083 299 q 689 0 861 33 m 579 835 q 431 810 497 835 q 324 749 365 786 q 254 662 282 711 q 215 565 226 613 q 203 472 203 518 q 302 216 203 319 q 582 113 401 113 q 840 217 738 113 q 943 469 943 322 q 840 730 943 625 q 579 835 736 835 z "},"R":{"ha":839,"x_min":107,"x_max":839,"o":"m 107 947 l 346 947 q 574 876 490 947 q 657 682 657 804 q 616 540 657 600 q 499 450 575 481 q 578 379 539 424 q 640 299 617 335 q 710 188 663 264 q 839 0 747 126 l 676 0 l 551 194 q 413 370 465 329 q 300 411 360 411 l 243 411 l 243 0 l 107 0 l 107 947 m 243 831 l 243 533 l 331 533 q 475 576 432 533 q 517 688 518 619 q 331 831 514 831 l 243 831 z "},"S":{"ha":636,"x_min":56,"x_max":592,"o":"m 554 893 l 554 739 q 332 838 450 838 q 224 806 267 838 q 182 725 182 775 q 213 647 182 683 q 288 587 243 611 q 387 530 333 563 q 485 463 440 497 q 561 372 531 429 q 592 244 592 315 q 517 60 592 133 q 326 -12 442 -12 q 61 75 178 -12 l 61 247 q 311 110 168 110 q 425 147 385 110 q 465 229 465 185 q 423 328 465 283 q 321 408 381 374 q 201 481 261 443 q 98 577 140 519 q 56 707 56 635 q 134 891 56 822 q 343 960 213 960 q 554 893 454 960 z "},"T":{"ha":839,"x_min":24,"x_max":815,"o":"m 815 947 l 815 825 l 488 825 l 488 0 l 351 0 l 351 825 l 24 825 l 24 947 l 815 947 z "},"U":{"ha":983,"x_min":85,"x_max":900,"o":"m 900 947 l 900 372 q 793 90 900 193 q 479 -12 686 -12 q 200 82 315 -12 q 85 358 85 176 l 85 947 l 221 947 l 221 388 q 233 267 221 308 q 278 193 246 225 q 482 113 358 113 q 704 189 628 113 q 764 396 764 249 l 764 947 l 900 947 z "},"V":{"ha":839,"x_min":0,"x_max":839,"o":"m 839 947 l 438 -8 l 410 -8 l 0 947 l 136 947 l 421 282 l 704 947 l 839 947 z "},"W":{"ha":1447,"x_min":0,"x_max":1446,"o":"m 1446 947 l 1061 -8 l 1035 -8 l 724 767 l 410 -8 l 383 -8 l 0 947 l 136 947 l 397 294 l 660 947 l 789 947 l 1053 294 l 1311 947 l 1446 947 z "},"X":{"ha":983,"x_min":3,"x_max":981,"o":"m 954 947 l 576 490 l 981 0 l 817 0 l 494 392 l 168 0 l 3 0 l 411 490 l 32 947 l 197 947 l 494 586 l 790 947 l 954 947 z "},"Y":{"ha":839,"x_min":0,"x_max":839,"o":"m 418 621 l 675 947 l 839 947 l 488 500 l 488 0 l 351 0 l 351 501 l 0 947 l 164 947 l 418 621 z "},"Z":{"ha":897,"x_min":22,"x_max":876,"o":"m 625 825 l 60 825 l 60 947 l 876 947 l 274 122 l 876 122 l 876 0 l 22 0 l 625 825 z "},"[":{"ha":463,"x_min":119,"x_max":443,"o":"m 443 947 l 443 836 l 253 836 l 253 -196 l 443 -196 l 443 -307 l 119 -307 l 119 947 l 443 947 z "},"\\":{"ha":390,"x_min":11,"x_max":381,"o":"m 381 -12 l 283 -12 l 11 960 l 108 960 l 381 -12 z "},"]":{"ha":463,"x_min":19,"x_max":343,"o":"m 19 -307 l 19 -196 l 210 -196 l 210 836 l 19 836 l 19 947 l 343 947 l 343 -307 l 19 -307 z "},"^":{"ha":651,"x_min":36,"x_max":615,"o":"m 161 404 l 36 404 l 276 947 l 375 947 l 615 404 l 492 404 l 325 810 l 161 404 z "},"_":{"ha":694,"x_min":-8,"x_max":703,"o":"m -8 -104 l 703 -104 l 703 -174 l -8 -174 l -8 -104 z "},"‘":{"ha":304,"x_min":64,"x_max":240,"o":"m 222 960 l 222 933 q 174 867 183 900 q 167 785 164 835 q 220 758 200 781 q 240 703 240 736 q 217 640 240 663 q 157 618 193 618 q 90 656 115 618 q 64 747 64 693 q 105 881 64 825 q 222 960 146 938 z "},"a":{"ha":593,"x_min":36,"x_max":571,"o":"m 571 111 l 571 36 q 451 -12 497 -12 q 357 51 372 -12 q 189 -12 276 -12 q 79 33 122 -12 q 36 140 36 78 q 50 206 36 176 q 80 252 64 235 q 132 288 96 269 q 187 315 168 307 q 249 338 206 322 l 358 376 l 358 410 q 246 519 358 519 q 49 417 135 519 l 49 551 q 256 636 121 636 q 419 584 356 636 q 482 431 482 532 l 482 110 q 506 78 482 78 q 571 111 526 78 m 358 126 l 358 308 q 210 244 260 275 q 161 163 161 213 q 186 99 161 124 q 250 75 211 75 q 358 126 304 75 z "},"b":{"ha":694,"x_min":82,"x_max":647,"o":"m 206 947 l 206 579 q 378 636 285 636 q 571 548 494 636 q 647 325 647 460 q 559 77 647 167 q 314 -12 471 -12 q 82 35 181 -12 l 82 947 l 206 947 m 206 461 l 206 124 q 331 104 269 104 q 467 161 414 104 q 521 307 521 218 q 473 465 521 406 q 347 525 425 525 q 206 461 276 525 z "},"c":{"ha":608,"x_min":57,"x_max":560,"o":"m 546 593 l 546 461 q 374 522 454 522 q 236 464 289 522 q 183 311 183 406 q 240 160 183 215 q 394 104 297 104 q 560 146 467 104 l 560 24 q 374 -12 482 -12 q 146 75 235 -12 q 57 300 57 163 q 140 545 57 454 q 365 636 224 636 q 546 593 449 636 z "},"d":{"ha":708,"x_min":61,"x_max":626,"o":"m 626 947 l 626 0 l 364 0 q 143 88 225 0 q 61 326 61 176 q 149 549 61 463 q 372 636 236 636 q 503 611 433 636 l 503 947 l 626 947 m 503 104 l 503 501 q 388 525 444 525 q 242 465 297 525 q 188 308 188 406 q 378 104 188 104 l 503 104 z "},"e":{"ha":665,"x_min":57,"x_max":619,"o":"m 608 181 l 608 61 q 360 -12 497 -12 q 139 85 221 -12 q 57 319 57 183 q 138 549 57 461 q 349 636 219 636 q 548 549 476 636 q 619 293 619 463 l 181 293 q 390 106 210 106 q 608 181 493 106 m 183 375 l 497 375 q 456 488 494 446 q 351 529 417 529 q 183 375 210 529 z "},"f":{"ha":347,"x_min":13,"x_max":411,"o":"m 411 947 l 411 826 q 356 838 383 838 q 253 799 283 838 q 224 683 224 760 l 224 624 l 336 624 l 336 513 l 224 513 l 224 0 l 100 0 l 100 513 l 13 513 l 13 624 l 100 624 l 100 669 q 119 808 100 756 q 179 900 139 860 q 411 947 267 988 z "},"g":{"ha":593,"x_min":0,"x_max":585,"o":"m 585 624 l 585 528 l 457 528 q 522 392 522 463 q 505 315 522 356 q 464 251 488 275 q 364 199 429 214 q 255 174 299 185 q 211 133 211 164 q 256 90 211 108 q 401 53 301 72 q 582 -121 582 17 q 504 -267 582 -214 q 288 -319 426 -319 q 81 -266 161 -319 q 0 -131 0 -212 q 38 -19 0 -61 q 157 42 76 22 q 94 121 94 81 q 122 175 94 151 q 193 210 149 199 l 193 213 q 89 292 125 242 q 56 408 56 339 q 128 566 56 508 q 328 624 201 624 l 585 624 m 411 407 q 375 484 411 451 q 290 517 339 517 q 203 483 239 517 q 167 404 167 450 q 201 322 167 353 q 292 290 236 290 q 378 323 344 290 q 411 407 411 356 m 463 -131 q 426 -70 463 -94 q 346 -38 389 -46 q 258 -31 303 -31 q 156 -57 196 -31 q 117 -125 117 -83 q 290 -221 117 -221 q 417 -197 372 -221 q 463 -131 463 -174 z "},"h":{"ha":694,"x_min":85,"x_max":610,"o":"m 208 947 l 208 542 l 211 542 q 397 636 286 636 q 551 571 493 636 q 610 382 610 506 l 610 0 l 486 0 l 486 386 q 453 497 486 456 q 364 538 419 538 q 208 447 289 538 l 208 0 l 85 0 l 85 947 l 208 947 z "},"i":{"ha":304,"x_min":79,"x_max":226,"o":"m 214 624 l 214 0 l 90 0 l 90 624 l 214 624 m 205 865 q 216 854 205 865 q 226 813 226 843 q 205 760 226 782 q 153 739 183 739 q 101 760 122 739 q 79 813 79 782 q 101 865 79 843 q 153 886 122 886 q 205 865 183 886 z "},"j":{"ha":304,"x_min":-8,"x_max":221,"o":"m 208 624 l 208 -82 q 178 -231 208 -178 q 85 -319 149 -285 l -8 -228 q 85 -92 85 -190 l 85 624 l 208 624 m 199 865 q 210 854 199 865 q 221 813 221 843 q 199 760 221 782 q 147 739 178 739 q 95 760 117 739 q 74 813 74 782 q 95 865 74 843 q 147 886 117 886 q 199 865 178 886 z "},"k":{"ha":665,"x_min":86,"x_max":694,"o":"m 639 624 l 372 318 l 694 0 l 528 0 l 215 318 l 492 624 l 639 624 m 210 947 l 210 0 l 86 0 l 86 947 l 210 947 z "},"l":{"ha":304,"x_min":90,"x_max":214,"o":"m 214 947 l 214 0 l 90 0 l 90 947 l 214 947 z "},"m":{"ha":1071,"x_min":82,"x_max":989,"o":"m 82 624 l 206 624 l 206 542 q 388 636 300 636 q 574 524 510 636 q 782 636 674 636 q 933 569 876 636 q 989 392 989 503 l 989 0 l 865 0 l 865 386 q 828 493 865 454 q 736 532 792 532 q 597 453 676 533 l 597 0 l 474 0 l 474 388 q 442 496 474 460 q 361 532 410 532 q 278 515 314 532 q 206 453 243 497 l 206 0 l 82 0 l 82 624 z "},"n":{"ha":694,"x_min":85,"x_max":610,"o":"m 208 624 l 208 542 l 211 542 q 397 636 286 636 q 550 572 490 636 q 610 385 610 507 l 610 0 l 486 0 l 486 386 q 453 497 486 456 q 364 538 419 538 q 208 447 289 538 l 208 0 l 85 0 l 85 624 l 208 624 z "},"o":{"ha":767,"x_min":50,"x_max":717,"o":"m 379 636 q 622 547 526 636 q 717 318 717 457 q 623 79 717 171 q 379 -12 529 -12 q 143 81 236 -12 q 50 318 50 174 q 145 544 50 453 q 379 636 240 636 m 378 525 q 233 467 290 525 q 176 318 176 408 q 232 159 176 219 q 378 99 288 99 q 533 157 476 99 q 590 317 590 215 q 531 466 590 407 q 378 525 471 525 z "},"p":{"ha":694,"x_min":79,"x_max":644,"o":"m 203 15 l 203 -319 l 79 -319 l 79 624 l 293 624 q 554 542 464 624 q 644 307 644 461 q 556 77 644 167 q 328 -12 467 -12 q 203 15 271 -12 m 203 513 l 203 126 q 319 99 261 99 q 462 158 406 99 q 518 308 518 218 q 467 460 518 407 q 315 513 415 513 l 203 513 z "},"q":{"ha":694,"x_min":50,"x_max":615,"o":"m 492 -319 l 492 10 q 367 -12 418 -12 q 139 77 228 -12 q 50 307 50 167 q 57 378 50 342 q 86 461 64 415 q 144 542 108 507 q 242 600 179 576 q 388 624 306 624 l 615 624 l 615 -319 l 492 -319 m 492 513 l 379 513 q 237 460 297 513 q 176 308 176 407 q 233 154 176 217 q 375 92 289 92 q 492 119 433 92 l 492 513 z "},"r":{"ha":550,"x_min":96,"x_max":551,"o":"m 96 624 l 219 624 l 219 481 l 222 481 q 403 636 311 636 q 551 564 475 636 l 486 457 q 371 518 422 518 q 263 463 307 518 q 219 326 219 407 l 219 0 l 96 0 l 96 624 z "},"s":{"ha":535,"x_min":57,"x_max":479,"o":"m 450 585 l 450 463 q 269 528 351 528 q 210 512 232 528 q 188 471 188 496 q 222 422 188 450 q 339 346 256 394 q 448 256 417 294 q 479 171 479 218 q 421 38 479 89 q 274 -12 363 -12 q 57 44 167 -12 l 57 178 q 261 96 176 96 q 327 117 301 99 q 353 167 353 135 q 307 226 353 194 q 207 285 261 258 q 107 361 153 313 q 61 467 61 410 q 117 591 61 546 q 267 636 172 636 q 450 585 353 636 z "},"t":{"ha":463,"x_min":0,"x_max":461,"o":"m 232 753 l 232 624 l 429 624 l 429 513 l 232 513 l 232 193 q 260 121 232 143 q 321 99 288 99 q 461 144 386 99 l 461 29 q 311 -12 385 -12 q 161 42 214 -12 q 108 183 108 96 l 108 513 l 0 513 l 0 526 l 232 753 z "},"u":{"ha":694,"x_min":83,"x_max":607,"o":"m 607 0 l 483 0 l 483 79 q 394 13 444 38 q 299 -12 344 -12 q 142 53 201 -12 q 83 236 83 119 l 83 624 l 207 624 l 207 228 q 335 90 207 90 q 483 178 421 90 l 483 624 l 607 624 l 607 0 z "},"v":{"ha":608,"x_min":4,"x_max":603,"o":"m 286 -12 l 4 624 l 139 624 l 307 240 l 471 624 l 603 624 l 328 -12 l 286 -12 z "},"w":{"ha":999,"x_min":0,"x_max":999,"o":"m 546 624 l 704 246 l 867 624 l 999 624 l 724 -12 l 685 -12 l 500 424 l 317 -12 l 278 -12 l 0 624 l 132 624 l 296 246 l 454 624 l 546 624 z "},"x":{"ha":694,"x_min":0,"x_max":694,"o":"m 676 624 l 419 317 l 694 0 l 536 0 l 340 224 l 156 0 l 0 0 l 263 317 l 0 624 l 156 624 l 340 410 l 518 624 l 676 624 z "},"y":{"ha":608,"x_min":0,"x_max":608,"o":"m 608 624 l 167 -319 l 29 -319 l 242 133 l 0 624 l 140 624 l 308 272 l 469 624 l 608 624 z "},"z":{"ha":579,"x_min":15,"x_max":563,"o":"m 561 624 l 229 111 l 563 111 l 563 0 l 15 0 l 346 513 l 29 513 l 29 624 l 561 624 z "},"{":{"ha":463,"x_min":39,"x_max":431,"o":"m 39 304 l 39 415 q 149 471 119 415 q 179 642 179 526 l 179 764 q 224 951 179 890 q 376 1011 268 1011 l 431 1011 l 431 906 l 410 906 q 315 879 338 906 q 293 765 293 853 l 293 665 q 262 460 293 526 q 151 360 231 393 q 262 260 231 326 q 293 54 293 193 l 293 -46 q 315 -160 293 -133 q 410 -186 338 -186 l 431 -186 l 431 -292 l 376 -292 q 224 -231 268 -292 q 179 -44 179 -171 l 179 78 q 149 249 179 193 q 39 304 119 304 z "},"|":{"ha":361,"x_min":128,"x_max":233,"o":"m 128 -319 l 128 947 l 233 947 l 233 -319 l 128 -319 z "},"}":{"ha":463,"x_min":32,"x_max":424,"o":"m 424 415 l 424 304 q 313 249 343 304 q 283 78 283 193 l 283 -44 q 239 -231 283 -171 q 86 -292 194 -292 l 32 -292 l 32 -186 l 53 -186 q 147 -160 125 -186 q 169 -46 169 -133 l 169 54 q 201 260 169 193 q 311 360 232 326 q 201 460 232 393 q 169 665 169 526 l 169 765 q 147 879 169 853 q 53 906 125 906 l 32 906 l 32 1011 l 86 1011 q 239 951 194 1011 q 283 764 283 890 l 283 642 q 313 471 283 526 q 424 415 343 415 z "},"~":{"ha":811,"x_min":35,"x_max":778,"o":"m 35 275 l 35 390 q 242 479 140 479 q 417 426 300 479 q 583 374 533 374 q 778 467 664 374 l 778 351 q 575 263 674 263 q 401 315 518 263 q 232 368 282 368 q 35 275 156 368 z "},"¡":{"ha":376,"x_min":104,"x_max":271,"o":"m 267 -61 q 189 -267 267 -267 q 111 -61 111 -267 q 119 88 111 31 l 154 326 q 189 414 167 414 q 224 326 211 414 l 258 88 q 267 -61 267 32 m 247 563 q 234 551 247 563 q 188 539 222 539 q 128 563 153 539 q 104 622 104 588 q 128 681 104 657 q 188 706 153 706 q 247 681 222 706 q 271 622 271 657 q 247 563 271 588 z "},"¢":{"ha":608,"x_min":53,"x_max":567,"o":"m 567 861 l 479 618 q 542 592 540 593 l 542 461 q 440 511 497 497 l 299 121 q 432 106 365 97 q 556 146 499 114 l 556 26 q 257 0 396 -32 l 161 -264 l 96 -264 l 203 26 q 94 139 135 65 q 53 300 53 213 q 151 558 53 464 q 421 632 250 653 l 503 861 l 567 861 m 247 151 l 381 521 q 234 463 289 528 q 179 307 179 399 q 247 151 179 211 z "},"£":{"ha":738,"x_min":82,"x_max":696,"o":"m 463 519 l 463 397 l 321 397 l 251 135 q 307 138 272 138 q 444 128 383 138 q 549 117 517 117 q 689 144 642 117 l 689 13 q 619 -6 656 1 q 543 -12 581 -12 q 431 -1 514 -12 q 307 8 360 8 q 82 -12 189 8 l 192 397 l 92 397 l 92 519 l 224 519 q 271 662 246 599 q 332 788 296 725 q 409 890 368 851 q 506 948 450 929 q 624 954 561 967 l 696 818 l 681 818 q 607 831 647 831 q 463 758 521 831 q 357 519 404 685 l 463 519 z "},"⁄":{"ha":275,"x_min":-225,"x_max":500,"o":"m 500 960 l -132 -37 l -225 -37 l 407 960 l 500 960 z "},"¥":{"ha":767,"x_min":-1,"x_max":768,"o":"m 324 0 l 324 221 l 42 221 l 42 314 l 324 314 l 324 411 l 42 411 l 42 513 l 274 513 l -1 994 l 135 994 l 385 547 l 625 994 l 768 994 l 496 513 l 725 513 l 725 411 l 447 411 l 447 314 l 725 314 l 725 221 l 447 221 l 447 0 l 324 0 z "},"ƒ":{"ha":767,"x_min":32,"x_max":736,"o":"m 32 -275 l 56 -169 q 160 -185 122 -185 q 240 -103 226 -185 l 365 625 l 229 625 l 244 719 l 382 719 l 401 838 q 465 971 417 929 q 596 1013 513 1013 q 736 986 647 1013 l 713 882 q 604 901 633 901 q 547 876 564 901 q 519 790 529 850 l 507 719 l 644 719 l 628 625 l 489 625 l 360 -115 q 302 -252 343 -212 q 179 -292 261 -292 q 32 -275 114 -292 z "},"§":{"ha":564,"x_min":44,"x_max":519,"o":"m 208 776 q 240 678 208 726 q 318 588 272 631 q 410 500 364 546 q 488 390 456 454 q 519 254 519 326 q 417 44 519 147 q 465 -112 465 -28 q 401 -260 465 -200 q 244 -319 338 -319 q 133 -283 178 -319 q 88 -193 88 -247 q 110 -134 88 -158 q 165 -110 133 -110 q 212 -129 193 -110 q 231 -175 231 -149 q 226 -195 231 -176 q 227 -222 221 -214 q 257 -231 233 -231 q 327 -201 297 -231 q 357 -132 357 -171 q 334 -49 357 -92 q 276 28 311 -7 q 201 108 242 64 q 125 194 160 151 q 67 293 90 236 q 44 411 44 350 q 136 611 44 528 q 97 747 97 678 q 108 811 97 778 q 142 879 119 844 q 208 937 164 914 q 310 960 251 960 q 426 926 381 960 q 472 842 472 893 q 452 787 472 808 q 400 765 432 765 q 360 783 375 765 q 344 819 344 800 q 343 848 344 839 q 333 864 342 857 q 304 871 324 871 q 234 846 260 871 q 208 776 208 821 m 194 533 q 150 433 150 489 q 172 349 150 392 q 215 279 193 306 q 288 201 238 253 q 360 125 338 150 q 411 243 411 176 q 382 342 411 297 q 284 449 353 386 q 194 533 215 511 z "},"¤":{"ha":767,"x_min":51,"x_max":715,"o":"m 622 314 l 715 221 l 636 142 l 543 235 q 383 186 472 186 q 224 235 296 186 l 131 142 l 51 221 l 144 314 q 96 474 96 383 q 144 633 96 561 l 51 726 l 131 806 l 224 713 q 383 761 292 761 q 543 713 469 761 l 636 806 l 715 726 l 622 633 q 671 474 671 567 q 622 314 671 382 m 508 599 q 482 624 508 599 q 383 650 456 650 q 259 599 311 650 q 207 474 207 547 q 259 349 207 400 q 383 297 311 297 q 508 349 456 297 q 560 474 560 400 q 508 599 560 547 z "},"'":{"ha":261,"x_min":69,"x_max":192,"o":"m 101 642 l 69 832 l 69 994 l 192 994 l 192 832 l 160 642 l 101 642 z "},"“":{"ha":593,"x_min":57,"x_max":536,"o":"m 518 960 l 518 933 q 469 867 479 900 q 463 785 460 835 q 516 758 496 781 q 536 703 536 736 q 513 640 536 663 q 453 618 489 618 q 385 656 411 618 q 360 747 360 693 q 401 881 360 825 q 518 960 442 938 m 215 960 l 215 933 q 167 867 176 900 q 160 785 157 835 q 213 758 193 781 q 233 703 233 736 q 210 640 233 663 q 150 618 186 618 q 83 656 108 618 q 57 747 57 693 q 98 881 57 825 q 215 960 139 938 z "},"«":{"ha":681,"x_min":42,"x_max":650,"o":"m 444 313 l 650 0 l 528 0 l 324 313 l 528 625 l 650 625 l 444 313 m 163 313 l 368 0 l 246 0 l 42 313 l 246 625 l 368 625 l 163 313 z "},"‹":{"ha":435,"x_min":50,"x_max":376,"o":"m 171 313 l 376 0 l 254 0 l 50 313 l 254 625 l 376 625 l 171 313 z "},"›":{"ha":435,"x_min":58,"x_max":385,"o":"m 264 313 l 58 625 l 181 625 l 385 313 l 181 0 l 58 0 l 264 313 z "},"ﬁ":{"ha":694,"x_min":18,"x_max":608,"o":"m 374 624 l 374 519 l 235 519 l 235 0 l 111 0 l 111 519 l 18 519 l 18 624 l 111 624 q 176 876 108 792 q 375 960 244 960 q 542 906 479 960 q 608 761 606 851 l 485 761 q 372 849 453 849 q 235 624 221 849 l 374 624 m 608 624 l 608 0 l 485 0 l 485 624 l 608 624 z "},"ﬂ":{"ha":694,"x_min":13,"x_max":606,"o":"m 421 947 l 421 833 q 367 849 403 849 q 232 688 232 849 l 232 624 l 371 624 l 371 519 l 232 519 l 232 0 l 108 0 l 108 519 l 13 519 l 13 624 l 108 624 l 108 669 q 128 807 108 756 q 189 899 149 858 q 421 947 279 989 m 606 947 l 606 0 l 482 0 l 482 947 l 606 947 z "},"–":{"ha":694,"x_min":-12,"x_max":707,"o":"m 707 396 l 707 307 l -12 307 l -12 396 l 707 396 z "},"†":{"ha":681,"x_min":38,"x_max":643,"o":"m 346 960 q 408 829 408 960 q 402 754 408 797 q 383 649 396 711 q 368 575 369 586 q 544 611 474 611 q 613 595 582 611 q 643 550 643 579 q 615 503 643 519 q 550 486 588 486 q 367 522 500 486 q 411 -94 411 7 q 397 -261 411 -203 q 339 -319 382 -319 q 280 -272 294 -319 q 265 -121 265 -225 q 313 522 265 81 q 136 486 201 486 q 67 501 97 486 q 38 546 38 515 q 139 611 38 611 q 313 575 213 611 q 274 828 274 760 q 346 960 274 960 z "},"‡":{"ha":681,"x_min":38,"x_max":643,"o":"m 339 960 q 407 835 407 960 q 367 606 407 779 q 549 644 478 644 q 643 579 643 644 q 612 535 643 550 q 543 519 581 519 q 367 554 499 519 q 378 439 367 522 q 389 322 389 356 q 378 203 389 288 q 367 85 367 119 q 455 109 399 97 q 544 121 511 121 q 613 105 582 121 q 643 60 643 89 q 546 -4 643 -4 q 367 35 471 -4 q 407 -192 407 -111 q 340 -319 407 -319 q 274 -196 274 -319 q 314 35 274 -117 q 131 -4 203 -4 q 38 60 38 -4 q 69 106 38 90 q 139 121 100 121 q 314 86 201 121 q 301 206 313 104 q 292 325 292 322 q 303 441 292 357 q 314 554 314 525 q 136 519 197 519 q 68 535 99 519 q 38 579 38 550 q 136 644 38 644 q 228 631 168 644 q 315 604 288 618 q 287 725 300 651 q 274 844 274 799 q 289 925 274 890 q 339 960 304 960 z "},"·":{"ha":361,"x_min":97,"x_max":264,"o":"m 122 538 q 134 550 122 538 q 181 563 146 563 q 240 538 215 563 q 264 479 264 514 q 240 420 264 444 q 181 396 215 396 q 122 420 146 396 q 97 479 97 444 q 122 538 97 514 z "},"¶":{"ha":753,"x_min":1,"x_max":750,"o":"m 275 -276 l 275 432 q 74 515 147 439 q 1 714 1 590 q 85 922 1 849 q 321 994 168 994 l 750 994 l 750 883 l 653 883 l 653 -276 l 538 -276 l 538 883 l 386 883 l 386 -276 l 275 -276 z "},"•":{"ha":492,"x_min":74,"x_max":418,"o":"m 124 595 q 150 620 124 595 q 246 646 175 646 q 367 595 317 646 q 418 474 418 544 q 367 352 418 403 q 246 301 317 301 q 124 352 175 301 q 74 474 74 403 q 124 595 74 544 z "},"‚":{"ha":304,"x_min":64,"x_max":240,"o":"m 82 -160 l 82 -133 q 131 -67 121 -100 q 138 15 140 -35 q 84 42 104 19 q 64 97 64 64 q 88 160 64 138 q 147 182 111 182 q 215 144 189 182 q 240 53 240 107 q 199 -81 240 -25 q 82 -160 158 -137 z "},"„":{"ha":593,"x_min":71,"x_max":551,"o":"m 393 -160 l 393 -133 q 442 -67 432 -100 q 449 15 451 -35 q 395 42 415 19 q 375 97 375 64 q 399 160 375 138 q 458 182 422 182 q 526 144 500 182 q 551 53 551 107 q 510 -81 551 -25 q 393 -160 469 -137 m 89 -160 l 89 -133 q 138 -67 128 -100 q 144 15 147 -35 q 91 42 111 19 q 71 97 71 64 q 94 160 71 138 q 154 182 118 182 q 222 144 196 182 q 247 53 247 107 q 206 -81 247 -25 q 89 -160 165 -137 z "},"”":{"ha":593,"x_min":57,"x_max":536,"o":"m 378 618 l 378 644 q 426 710 417 678 q 433 793 436 743 q 380 819 400 797 q 360 875 360 842 q 383 938 360 915 q 443 960 407 960 q 510 922 485 960 q 536 831 536 885 q 495 697 536 753 q 378 618 454 640 m 75 618 l 75 644 q 124 710 114 678 q 131 793 133 743 q 77 819 97 797 q 57 875 57 842 q 81 938 57 915 q 140 960 104 960 q 208 922 182 960 q 233 831 233 885 q 192 697 233 753 q 75 618 151 640 z "},"»":{"ha":681,"x_min":31,"x_max":639,"o":"m 518 313 l 313 625 l 435 625 l 639 313 l 435 0 l 313 0 l 518 313 m 236 313 l 31 625 l 153 625 l 357 313 l 153 0 l 31 0 l 236 313 z "},"…":{"ha":1389,"x_min":147,"x_max":1242,"o":"m 290 130 q 277 142 290 130 q 231 154 265 154 q 172 130 196 154 q 147 71 147 106 q 172 12 147 36 q 231 -12 196 -12 q 290 12 265 -12 q 314 71 314 36 q 290 130 314 106 m 635 130 q 648 142 635 130 q 694 154 660 154 q 753 130 729 154 q 778 71 778 106 q 753 12 778 36 q 694 -12 729 -12 q 635 12 660 -12 q 611 71 611 36 q 635 130 611 106 m 1217 130 q 1205 142 1217 130 q 1158 154 1193 154 q 1099 130 1124 154 q 1075 71 1075 106 q 1099 12 1075 36 q 1158 -12 1124 -12 q 1217 12 1193 -12 q 1242 71 1242 36 q 1217 130 1242 106 z "},"‰":{"ha":1403,"x_min":18,"x_max":1386,"o":"m 1174 308 q 1097 276 1129 308 q 1064 199 1064 243 q 1097 121 1064 153 q 1174 89 1129 89 q 1251 121 1219 89 q 1283 199 1283 153 q 1251 276 1283 243 q 1174 308 1219 308 m 1174 411 q 1323 349 1260 411 q 1386 199 1386 286 q 1323 49 1386 111 q 1174 -14 1260 -14 q 1024 48 1086 -14 q 961 199 961 110 q 1024 349 961 286 q 1174 411 1086 411 m 813 960 l 189 -14 l 85 -14 l 708 960 l 813 960 m 669 411 q 819 349 756 411 q 882 199 882 286 q 819 49 882 111 q 669 -14 756 -14 q 519 48 582 -14 q 457 199 457 110 q 519 349 457 286 q 669 411 582 411 m 669 308 q 592 276 625 308 q 560 199 560 243 q 592 121 560 153 q 669 89 625 89 q 747 121 715 89 q 779 199 779 153 q 747 276 779 243 q 669 308 715 308 m 231 958 q 380 896 317 958 q 443 746 443 833 q 380 596 443 658 q 231 533 317 533 q 81 595 143 533 q 18 746 18 657 q 81 896 18 833 q 231 958 143 958 m 231 856 q 153 823 186 856 q 121 746 121 790 q 153 668 121 700 q 231 636 186 636 q 308 668 276 636 q 340 746 340 700 q 308 823 340 790 q 231 856 276 856 z "},"¿":{"ha":463,"x_min":60,"x_max":351,"o":"m 349 -135 l 283 -268 q 115 -207 171 -269 q 60 -67 60 -144 q 95 81 60 3 q 172 216 131 160 q 245 337 214 272 q 269 449 276 401 q 351 321 351 408 q 313 192 351 258 q 235 65 274 126 q 196 -50 196 3 q 221 -117 196 -92 q 288 -143 246 -143 q 349 -135 303 -143 m 308 562 q 295 550 308 562 q 249 538 283 538 q 190 562 214 538 q 165 621 165 586 q 190 680 165 656 q 249 704 214 704 q 308 680 283 704 q 332 621 332 656 q 308 562 332 586 z "},"`":{"ha":463,"x_min":83,"x_max":315,"o":"m 222 908 l 315 704 l 239 704 l 83 908 l 222 908 z "},"´":{"ha":463,"x_min":154,"x_max":386,"o":"m 247 908 l 386 908 l 231 704 l 154 704 l 247 908 z "},"ˆ":{"ha":463,"x_min":39,"x_max":425,"o":"m 294 913 l 425 703 l 349 703 l 228 824 l 113 703 l 39 703 l 165 913 l 294 913 z "},"˜":{"ha":463,"x_min":28,"x_max":435,"o":"m 382 893 l 435 893 q 404 774 435 819 q 325 729 374 729 q 225 753 286 729 q 132 778 164 778 q 85 729 92 778 l 28 729 q 136 889 39 889 q 245 865 175 889 q 332 840 315 840 q 382 893 374 840 z "},"¯":{"ha":463,"x_min":1,"x_max":461,"o":"m 461 854 l 461 753 l 1 753 l 1 854 l 461 854 z "},"˘":{"ha":463,"x_min":35,"x_max":428,"o":"m 333 893 l 428 893 q 362 760 413 807 q 233 714 311 714 q 101 760 153 714 q 35 893 50 807 l 128 893 q 235 807 149 807 q 333 893 314 807 z "},"˙":{"ha":463,"x_min":167,"x_max":296,"o":"m 232 872 q 277 854 258 872 q 296 808 296 836 q 277 762 296 781 q 232 743 258 743 q 186 762 206 743 q 167 808 167 781 q 185 853 167 835 q 232 872 204 872 z "},"¨":{"ha":463,"x_min":38,"x_max":425,"o":"m 56 853 q 66 863 56 853 q 103 872 75 872 q 149 854 131 872 q 167 808 167 836 q 148 762 167 781 q 103 743 129 743 q 56 762 75 743 q 38 808 38 781 q 56 853 38 835 m 315 853 q 324 863 315 853 q 361 872 333 872 q 407 854 389 872 q 425 808 425 836 q 406 762 425 781 q 361 743 388 743 q 315 762 333 743 q 296 808 296 781 q 315 853 296 835 z "},"˚":{"ha":463,"x_min":103,"x_max":361,"o":"m 141 922 q 160 941 141 922 q 232 960 179 960 q 323 922 285 960 q 361 831 361 883 q 323 740 361 778 q 232 701 285 701 q 141 740 179 701 q 103 831 103 778 q 141 922 103 883 m 286 884 q 275 895 286 884 q 232 907 264 907 q 178 884 200 907 q 156 831 156 861 q 178 777 156 800 q 232 754 200 754 q 286 777 264 754 q 308 831 308 800 q 286 884 308 861 z "},"¸":{"ha":463,"x_min":140,"x_max":356,"o":"m 290 11 l 281 -22 q 356 -110 356 -43 q 296 -216 356 -185 q 140 -233 236 -247 l 140 -157 q 224 -154 190 -164 q 257 -121 257 -144 q 235 -92 257 -103 q 176 -86 214 -82 l 211 11 l 290 11 z "},"˝":{"ha":463,"x_min":3,"x_max":457,"o":"m 96 908 l 235 908 l 79 704 l 3 704 l 96 908 m 318 908 l 457 908 l 301 704 l 225 704 l 318 908 z "},"˛":{"ha":463,"x_min":128,"x_max":369,"o":"m 369 -133 l 369 -226 q 268 -247 319 -247 q 167 -210 207 -247 q 128 -117 128 -174 q 189 13 128 -50 l 282 13 q 233 -85 233 -47 q 254 -130 233 -111 q 304 -149 275 -149 q 369 -133 314 -149 z "},"ˇ":{"ha":463,"x_min":39,"x_max":425,"o":"m 294 704 l 165 704 l 39 914 l 113 914 l 228 793 l 349 914 l 425 914 l 294 704 z "},"—":{"ha":1389,"x_min":-12,"x_max":1401,"o":"m 1401 396 l 1401 307 l -12 307 l -12 396 l 1401 396 z "},"Æ":{"ha":1244,"x_min":3,"x_max":1197,"o":"m 1182 947 l 1182 825 l 793 825 l 793 540 l 1169 540 l 1169 418 l 793 418 l 793 122 l 1197 122 l 1197 0 l 657 0 l 657 418 l 392 418 l 143 0 l 3 0 l 564 947 l 1182 947 m 654 864 l 461 540 l 657 540 l 657 864 l 654 864 z "},"ª":{"ha":390,"x_min":21,"x_max":379,"o":"m 379 658 l 379 600 q 292 568 328 568 q 226 600 239 568 q 125 568 178 568 q 51 596 81 568 q 21 664 21 624 q 72 747 21 717 q 226 803 122 776 q 215 865 226 849 q 164 882 203 882 q 28 810 100 882 l 28 906 q 171 960 78 960 q 278 929 235 960 q 321 836 321 899 l 321 661 q 328 631 321 631 q 379 658 339 631 m 226 754 q 140 718 164 733 q 117 676 117 703 q 165 629 117 629 q 226 654 194 629 l 226 754 z "},"Ł":{"ha":681,"x_min":-21,"x_max":667,"o":"m 431 744 l 431 622 l 239 464 l 239 122 l 667 122 l 667 0 l 103 0 l 103 365 l -21 264 l -21 386 l 103 488 l 103 947 l 239 947 l 239 586 l 431 744 z "},"Ø":{"ha":1143,"x_min":63,"x_max":1081,"o":"m 300 222 l 775 779 q 571 835 678 835 q 308 732 413 835 q 203 474 203 629 q 300 222 203 333 m 275 71 l 210 -6 l 144 40 l 213 119 q 63 474 63 269 q 204 818 63 676 q 571 960 346 960 q 861 881 739 960 l 932 963 l 996 907 l 929 829 q 1041 670 1001 765 q 1081 474 1081 575 q 940 131 1081 274 q 568 -12 800 -12 q 275 71 400 -12 m 840 726 l 363 172 q 571 113 461 113 q 835 215 731 113 q 940 474 940 318 q 840 726 940 624 z "},"Œ":{"ha":1274,"x_min":65,"x_max":1231,"o":"m 1215 947 l 1215 825 l 828 825 l 828 540 l 1201 540 l 1201 418 l 828 418 l 828 122 l 1231 122 l 1231 0 l 614 0 q 222 130 379 0 q 65 472 65 260 q 215 815 65 683 q 601 947 364 947 l 1215 947 m 692 118 l 692 829 l 613 829 q 313 725 421 829 q 206 474 206 621 q 318 220 206 322 q 597 118 431 118 l 692 118 z "},"º":{"ha":507,"x_min":32,"x_max":475,"o":"m 412 904 q 443 876 412 904 q 475 764 475 849 q 412 624 475 679 q 253 568 349 568 q 95 624 158 568 q 32 764 32 679 q 95 904 32 849 q 253 960 158 960 q 412 904 349 960 m 344 676 q 362 693 344 676 q 379 764 379 710 q 344 851 379 818 q 254 885 310 885 q 163 851 197 885 q 128 764 128 818 q 163 676 128 710 q 254 643 197 643 q 344 676 310 643 z "},"æ":{"ha":926,"x_min":49,"x_max":876,"o":"m 874 178 l 874 54 q 664 -12 782 -12 q 538 14 596 -12 q 450 85 479 40 q 211 -12 331 -12 q 94 33 140 -12 q 49 147 49 78 q 121 279 49 232 q 364 372 193 326 q 265 525 375 525 q 63 418 154 525 l 63 567 q 264 636 144 636 q 450 556 385 636 q 633 636 533 636 q 810 556 744 636 q 871 338 876 475 l 488 338 q 543 160 488 222 q 681 99 599 99 q 874 178 768 99 m 503 419 l 749 419 q 713 499 742 474 q 628 525 685 525 q 552 497 585 525 q 503 419 519 469 m 364 311 q 219 244 263 274 q 175 172 175 214 q 200 101 175 131 q 260 72 225 72 q 364 110 300 72 l 364 311 z "},"ı":{"ha":304,"x_min":90,"x_max":214,"o":"m 214 624 l 214 0 l 90 0 l 90 624 l 214 624 z "},"ł":{"ha":304,"x_min":-19,"x_max":324,"o":"m 324 669 l 324 561 l 214 472 l 214 0 l 90 0 l 90 383 l -19 294 l -19 403 l 90 492 l 90 947 l 214 947 l 214 581 l 324 669 z "},"ø":{"ha":767,"x_min":50,"x_max":717,"o":"m 222 171 l 499 493 q 378 525 443 525 q 233 467 290 525 q 176 318 176 408 q 222 171 176 229 m 192 40 l 114 -51 l 68 -10 l 144 79 q 50 318 50 174 q 145 544 50 453 q 379 636 240 636 q 574 582 497 636 l 639 657 l 685 615 l 624 544 q 717 318 717 451 q 623 79 717 171 q 379 -12 529 -12 q 192 40 275 -12 m 544 451 l 268 129 q 378 99 317 99 q 533 157 476 99 q 590 317 590 215 q 544 451 590 396 z "},"œ":{"ha":1157,"x_min":49,"x_max":1113,"o":"m 1108 179 l 1108 54 q 1051 22 1075 33 q 983 -1 1028 10 q 883 -12 938 -12 q 651 111 728 -12 q 381 -12 551 -12 q 147 78 244 -12 q 49 297 49 169 q 143 542 49 447 q 389 636 238 636 q 651 507 553 636 q 875 636 728 636 q 1044 557 975 636 q 1106 338 1113 478 l 717 338 q 764 165 708 231 q 910 99 819 99 q 1108 179 1006 99 m 729 419 l 983 419 q 868 525 971 525 q 729 419 763 525 m 386 525 q 235 461 294 525 q 175 303 175 397 q 235 159 175 219 q 382 99 296 99 q 531 159 475 99 q 588 315 588 219 q 529 463 588 401 q 386 525 471 525 z "},"ß":{"ha":694,"x_min":82,"x_max":649,"o":"m 82 0 l 82 718 q 154 896 82 832 q 346 960 226 960 q 540 899 469 960 q 610 731 610 838 q 573 605 610 660 q 472 524 536 550 l 472 521 q 602 435 556 500 q 649 272 649 369 q 580 66 649 144 q 399 -12 511 -12 q 310 0 365 -12 l 310 121 q 376 106 343 106 q 482 152 442 106 q 522 275 522 199 q 321 461 522 467 l 321 572 q 442 608 400 571 q 483 717 483 646 q 444 822 483 779 q 347 864 406 864 q 206 703 206 864 l 206 0 l 82 0 z "},"÷":{"ha":811,"x_min":78,"x_max":733,"o":"m 78 547 l 733 547 l 733 433 l 78 433 l 78 547 m 353 338 q 364 349 353 338 q 406 360 375 360 q 458 338 436 360 q 479 286 479 317 q 458 234 479 256 q 406 213 436 213 q 353 234 375 213 q 332 286 332 256 q 353 338 332 317 m 353 747 q 364 757 353 747 q 406 768 375 768 q 458 747 436 768 q 479 694 479 725 q 458 642 479 664 q 406 621 436 621 q 353 642 375 621 q 332 694 332 664 q 353 747 332 725 z "},"¾":{"ha":1172,"x_min":90,"x_max":1011,"o":"m 907 960 l 275 -37 l 182 -37 l 814 960 l 907 960 m 104 860 l 104 936 q 219 960 157 960 q 344 924 297 960 q 392 829 392 889 q 326 721 392 754 q 401 606 401 693 q 350 497 401 539 q 217 454 299 454 q 90 485 156 454 l 90 572 q 221 532 160 532 q 280 551 258 532 q 301 603 301 571 q 185 679 301 683 l 185 751 q 271 766 244 746 q 297 818 297 786 q 274 869 297 850 q 208 888 250 888 q 104 860 167 888 m 949 500 l 949 228 l 1011 228 l 1011 160 l 949 160 l 949 0 l 854 0 l 854 160 l 618 160 l 618 194 l 903 500 l 949 500 m 854 344 l 746 228 l 854 228 l 854 344 z "},"¼":{"ha":1172,"x_min":115,"x_max":944,"o":"m 882 500 l 882 228 l 944 228 l 944 160 l 882 160 l 882 0 l 788 0 l 788 160 l 551 160 l 551 194 l 836 500 l 882 500 m 788 344 l 679 228 l 788 228 l 788 344 m 271 954 l 271 461 l 175 461 l 175 954 l 271 954 m 840 960 l 208 -37 l 115 -37 l 747 960 l 840 960 z "},"¹":{"ha":449,"x_min":176,"x_max":272,"o":"m 272 954 l 272 461 l 176 461 l 176 954 l 272 954 z "},"×":{"ha":811,"x_min":110,"x_max":700,"o":"m 110 278 l 324 492 l 110 706 l 192 788 l 406 574 l 618 786 l 700 704 l 488 492 l 700 279 l 618 197 l 406 410 l 192 196 l 110 278 z "},"®":{"ha":1028,"x_min":1,"x_max":1025,"o":"m 289 217 l 289 767 l 532 767 q 669 722 625 767 q 714 622 714 676 q 670 512 714 556 q 557 464 626 468 l 557 461 q 618 418 590 450 q 685 324 646 386 l 751 217 l 643 217 l 594 303 q 513 423 543 396 q 431 450 482 450 l 378 450 l 378 217 l 289 217 m 378 526 l 506 526 q 619 610 619 526 q 592 669 619 647 q 521 692 565 692 l 378 692 l 378 526 m 940 500 q 815 801 940 676 q 513 926 690 926 q 211 802 336 926 q 86 500 86 678 q 211 197 86 322 q 513 72 336 72 q 815 197 689 72 q 940 500 940 322 m 875 862 q 950 787 875 862 q 1025 500 1025 713 q 875 138 1025 288 q 513 -12 725 -12 q 151 138 300 -12 q 1 500 1 288 q 151 862 1 713 q 513 1011 300 1011 q 875 862 725 1011 z "},"Þ":{"ha":708,"x_min":97,"x_max":694,"o":"m 97 947 l 233 947 l 233 742 l 393 742 q 618 665 542 742 q 694 469 694 589 q 613 278 694 351 q 375 204 532 204 l 233 204 l 233 0 l 97 0 l 97 947 m 233 619 l 233 326 l 388 326 q 509 366 464 326 q 554 475 554 406 q 516 578 554 536 q 393 619 478 619 l 233 619 z "},"¦":{"ha":361,"x_min":128,"x_max":233,"o":"m 128 -319 l 128 244 l 233 244 l 233 -319 l 128 -319 m 128 475 l 128 947 l 233 947 l 233 475 l 128 475 z "},"Ð":{"ha":1042,"x_min":-6,"x_max":978,"o":"m 106 0 l 106 413 l -6 413 l -6 535 l 106 535 l 106 947 l 474 947 q 685 907 589 947 q 845 800 782 867 q 943 649 908 733 q 978 474 978 564 q 839 140 978 281 q 475 0 700 0 l 106 0 m 242 122 l 461 122 q 731 215 625 122 q 838 474 838 308 q 739 726 838 626 q 451 825 640 825 l 242 825 l 242 535 l 510 535 l 510 413 l 242 413 l 242 122 z "},"½":{"ha":1172,"x_min":115,"x_max":1017,"o":"m 1017 75 l 1017 0 l 646 0 l 646 10 q 825 210 771 138 q 879 338 879 283 q 855 398 879 375 q 790 421 831 421 q 658 340 713 421 l 658 449 q 797 499 726 499 q 926 455 876 499 q 976 343 976 411 q 807 75 976 242 l 1017 75 m 840 960 l 208 -37 l 115 -37 l 747 960 l 840 960 m 271 954 l 271 461 l 175 461 l 175 954 l 271 954 z "},"−":{"ha":811,"x_min":78,"x_max":733,"o":"m 78 547 l 733 547 l 733 433 l 78 433 l 78 547 z "},"ç":{"ha":608,"x_min":57,"x_max":560,"o":"m 560 146 l 560 24 q 363 -12 482 -12 l 357 -32 q 432 -119 432 -53 q 372 -226 432 -194 q 217 -243 313 -257 l 217 -167 q 300 -164 267 -174 q 333 -131 333 -154 q 312 -102 333 -112 q 253 -96 290 -92 l 286 -1 q 119 105 182 24 q 57 300 57 186 q 140 545 57 454 q 365 636 224 636 q 546 593 449 636 l 546 461 q 374 522 454 522 q 236 464 289 522 q 183 311 183 406 q 240 160 183 215 q 394 104 297 104 q 560 146 467 104 z "},"ð":{"ha":782,"x_min":50,"x_max":717,"o":"m 176 318 q 232 159 176 219 q 378 99 288 99 q 533 157 476 99 q 590 317 590 215 q 531 466 590 407 q 378 525 471 525 q 233 467 290 525 q 176 318 176 408 m 697 885 l 554 817 q 676 610 635 725 q 717 392 717 496 q 628 91 717 194 q 379 -12 540 -12 q 143 81 236 -12 q 50 318 50 174 q 145 544 50 453 q 379 636 240 636 q 557 578 489 636 l 560 581 q 438 761 525 671 l 253 674 l 214 747 l 371 821 q 278 876 328 853 l 363 958 q 490 878 429 929 l 658 958 l 697 885 z "},"±":{"ha":811,"x_min":78,"x_max":733,"o":"m 78 114 l 733 114 l 733 0 l 78 0 l 78 114 m 349 818 l 463 818 l 463 547 l 733 547 l 733 433 l 463 433 l 463 163 l 349 163 l 349 433 l 78 433 l 78 547 l 349 547 l 349 818 z "},"Ç":{"ha":983,"x_min":67,"x_max":921,"o":"m 921 219 l 921 71 q 760 8 840 29 q 550 -12 679 -12 l 544 -32 q 619 -119 619 -53 q 560 -226 619 -194 q 404 -243 500 -257 l 404 -167 q 488 -164 454 -174 q 521 -131 521 -154 q 499 -102 521 -112 q 440 -96 478 -92 l 474 -3 q 244 99 340 19 q 108 272 149 178 q 67 460 67 365 q 213 818 67 676 q 586 960 360 960 q 911 882 725 960 l 911 736 q 585 835 742 835 q 315 731 422 835 q 207 472 207 628 q 313 213 207 313 q 590 113 419 113 q 921 219 756 113 z "},"þ":{"ha":694,"x_min":79,"x_max":644,"o":"m 203 15 l 203 -319 l 79 -319 l 79 947 l 203 947 l 203 624 l 293 624 q 554 542 464 624 q 644 307 644 461 q 556 77 644 167 q 328 -12 467 -12 q 203 15 271 -12 m 203 513 l 203 126 q 319 99 261 99 q 462 158 406 99 q 518 308 518 218 q 467 460 518 407 q 315 513 415 513 l 203 513 z "},"©":{"ha":1028,"x_min":1,"x_max":1025,"o":"m 678 417 l 761 392 q 674 255 740 303 q 508 207 607 207 q 317 288 388 207 q 246 507 246 368 q 321 710 246 633 q 519 786 396 786 q 669 744 608 786 q 751 626 729 703 l 671 607 q 513 711 629 711 q 386 651 433 711 q 339 493 339 592 q 385 341 339 396 q 514 286 432 286 q 619 322 574 286 q 678 417 664 357 m 875 862 q 950 787 875 862 q 1025 500 1025 713 q 875 138 1025 288 q 513 -12 725 -12 q 151 138 300 -12 q 1 500 1 288 q 151 862 1 713 q 513 1011 300 1011 q 875 862 725 1011 m 940 500 q 815 801 940 676 q 513 926 690 926 q 211 802 336 926 q 86 500 86 678 q 211 197 86 322 q 513 72 336 72 q 815 197 689 72 q 940 500 940 322 z "},"¬":{"ha":811,"x_min":76,"x_max":733,"o":"m 733 175 l 619 175 l 619 471 l 76 471 l 76 585 l 733 585 l 733 175 z "},"²":{"ha":449,"x_min":39,"x_max":410,"o":"m 410 536 l 410 461 l 39 461 l 39 471 q 218 672 164 599 q 272 799 272 744 q 248 859 272 836 q 183 882 224 882 q 51 801 106 882 l 51 910 q 190 960 119 960 q 319 916 269 960 q 369 804 369 872 q 200 536 369 703 l 410 536 z "},"³":{"ha":449,"x_min":64,"x_max":375,"o":"m 78 860 l 78 936 q 193 960 131 960 q 318 924 271 960 q 365 829 365 889 q 300 721 365 754 q 375 606 375 693 q 324 497 375 539 q 190 454 272 454 q 64 485 129 454 l 64 572 q 194 532 133 532 q 253 551 232 532 q 275 603 275 571 q 158 679 275 683 l 158 751 q 244 766 218 746 q 271 818 271 786 q 247 869 271 850 q 182 888 224 888 q 78 860 140 888 z "},"™":{"ha":1389,"x_min":153,"x_max":1210,"o":"m 332 442 l 332 913 l 153 913 l 153 994 l 604 994 l 604 913 l 424 913 l 424 442 l 332 442 m 667 442 l 667 994 l 803 994 l 940 553 l 943 553 l 1076 994 l 1210 994 l 1210 442 l 1125 442 l 1125 906 l 1122 906 l 983 442 l 900 442 l 754 913 l 751 913 l 751 442 l 667 442 z "},"°":{"ha":550,"x_min":86,"x_max":461,"o":"m 356 904 q 339 921 356 904 q 274 938 322 938 q 192 905 225 938 q 160 824 160 872 q 193 742 160 775 q 274 708 226 708 q 356 742 322 708 q 389 824 389 775 q 356 904 389 871 m 141 956 q 168 984 141 956 q 274 1011 196 1011 q 406 956 351 1011 q 461 824 461 901 q 406 691 461 746 q 274 636 351 636 q 141 691 196 636 q 86 824 86 746 q 141 956 86 901 z "},"µ":{"ha":767,"x_min":121,"x_max":651,"o":"m 651 624 l 651 0 l 538 0 l 538 74 l 535 74 q 389 -12 486 -12 q 247 63 299 -12 l 244 63 l 244 -239 l 121 -239 l 121 624 l 244 624 l 244 279 q 282 131 244 182 q 382 81 319 81 q 490 132 451 81 q 528 276 528 183 l 528 624 l 651 624 z "},"Á":{"ha":926,"x_min":0,"x_max":926,"o":"m 503 953 l 926 0 l 788 0 l 661 279 l 258 279 l 139 0 l 0 0 l 407 953 l 503 953 m 453 744 l 311 401 l 606 401 l 453 744 m 479 1214 l 618 1214 l 463 1010 l 386 1010 l 479 1214 z "},"Â":{"ha":926,"x_min":0,"x_max":926,"o":"m 503 953 l 926 0 l 788 0 l 661 279 l 258 279 l 139 0 l 0 0 l 407 953 l 503 953 m 453 744 l 311 401 l 606 401 l 453 744 m 526 1218 l 657 1008 l 581 1008 l 460 1129 l 344 1008 l 271 1008 l 397 1218 l 526 1218 z "},"Ä":{"ha":926,"x_min":0,"x_max":926,"o":"m 503 953 l 926 0 l 788 0 l 661 279 l 258 279 l 139 0 l 0 0 l 407 953 l 503 953 m 453 744 l 311 401 l 606 401 l 453 744 m 288 1159 q 298 1168 288 1159 q 335 1178 307 1178 q 381 1160 363 1178 q 399 1114 399 1142 q 380 1067 399 1086 q 335 1049 361 1049 q 288 1067 307 1049 q 269 1114 269 1086 q 288 1159 269 1140 m 547 1159 q 556 1168 547 1159 q 593 1178 565 1178 q 639 1160 621 1178 q 657 1114 657 1142 q 638 1067 657 1086 q 593 1049 619 1049 q 547 1067 565 1049 q 528 1114 528 1086 q 547 1159 528 1140 z "},"À":{"ha":926,"x_min":0,"x_max":926,"o":"m 503 953 l 926 0 l 788 0 l 661 279 l 258 279 l 139 0 l 0 0 l 407 953 l 503 953 m 453 744 l 311 401 l 606 401 l 453 744 m 454 1214 l 547 1010 l 471 1010 l 315 1214 l 454 1214 z "},"Å":{"ha":926,"x_min":0,"x_max":926,"o":"m 503 953 l 926 0 l 788 0 l 661 279 l 258 279 l 139 0 l 0 0 l 407 953 l 503 953 m 453 744 l 311 401 l 606 401 l 453 744 m 373 1227 q 392 1246 373 1227 q 464 1265 411 1265 q 555 1227 517 1265 q 593 1136 593 1189 q 555 1045 593 1083 q 464 1007 517 1007 q 373 1045 411 1007 q 335 1136 335 1083 q 373 1227 335 1189 m 518 1190 q 507 1201 518 1190 q 464 1213 496 1213 q 410 1190 432 1213 q 388 1136 388 1167 q 410 1083 388 1106 q 464 1060 432 1060 q 518 1083 496 1060 q 540 1136 540 1106 q 518 1190 540 1167 z "},"Ã":{"ha":926,"x_min":0,"x_max":926,"o":"m 503 953 l 926 0 l 788 0 l 661 279 l 258 279 l 139 0 l 0 0 l 407 953 l 503 953 m 453 744 l 311 401 l 606 401 l 453 744 m 614 1199 l 667 1199 q 636 1080 667 1125 q 557 1035 606 1035 q 457 1059 518 1035 q 364 1083 396 1083 q 317 1035 324 1083 l 260 1035 q 368 1194 271 1194 q 477 1170 407 1194 q 564 1146 547 1146 q 614 1199 606 1146 z "},"É":{"ha":694,"x_min":104,"x_max":654,"o":"m 642 947 l 642 825 l 240 825 l 240 539 l 628 539 l 628 417 l 240 417 l 240 122 l 654 122 l 654 0 l 104 0 l 104 947 l 642 947 m 364 1214 l 503 1214 l 347 1010 l 271 1010 l 364 1214 z "},"Ê":{"ha":694,"x_min":104,"x_max":654,"o":"m 642 947 l 642 825 l 240 825 l 240 539 l 628 539 l 628 417 l 240 417 l 240 122 l 654 122 l 654 0 l 104 0 l 104 947 l 642 947 m 411 1218 l 542 1008 l 465 1008 l 344 1129 l 229 1008 l 156 1008 l 282 1218 l 411 1218 z "},"Ë":{"ha":694,"x_min":104,"x_max":654,"o":"m 642 947 l 642 825 l 240 825 l 240 539 l 628 539 l 628 417 l 240 417 l 240 122 l 654 122 l 654 0 l 104 0 l 104 947 l 642 947 m 173 1159 q 182 1168 173 1159 q 219 1178 192 1178 q 265 1160 247 1178 q 283 1114 283 1142 q 265 1067 283 1086 q 219 1049 246 1049 q 173 1067 192 1049 q 154 1114 154 1086 q 173 1159 154 1140 m 431 1159 q 441 1168 431 1159 q 478 1178 450 1178 q 524 1160 506 1178 q 542 1114 542 1142 q 523 1067 542 1086 q 478 1049 504 1049 q 431 1067 450 1049 q 413 1114 413 1086 q 431 1159 413 1140 z "},"È":{"ha":694,"x_min":104,"x_max":654,"o":"m 642 947 l 642 825 l 240 825 l 240 539 l 628 539 l 628 417 l 240 417 l 240 122 l 654 122 l 654 0 l 104 0 l 104 947 l 642 947 m 339 1214 l 432 1010 l 356 1010 l 200 1214 l 339 1214 z "},"Í":{"ha":347,"x_min":97,"x_max":329,"o":"m 242 947 l 242 0 l 106 0 l 106 947 l 242 947 m 190 1214 l 329 1214 l 174 1010 l 97 1010 l 190 1214 z "},"Î":{"ha":347,"x_min":-18,"x_max":368,"o":"m 242 947 l 242 0 l 106 0 l 106 947 l 242 947 m 238 1218 l 368 1008 l 292 1008 l 171 1129 l 56 1008 l -18 1008 l 108 1218 l 238 1218 z "},"Ï":{"ha":347,"x_min":-19,"x_max":368,"o":"m 242 947 l 242 0 l 106 0 l 106 947 l 242 947 m -1 1159 q 9 1168 -1 1159 q 46 1178 18 1178 q 92 1160 74 1178 q 110 1114 110 1142 q 91 1067 110 1086 q 46 1049 72 1049 q -1 1067 18 1049 q -19 1114 -19 1086 q -1 1159 -19 1140 m 258 1159 q 267 1168 258 1159 q 304 1178 276 1178 q 350 1160 332 1178 q 368 1114 368 1142 q 349 1067 368 1086 q 304 1049 331 1049 q 258 1067 276 1049 q 239 1114 239 1086 q 258 1159 239 1140 z "},"Ì":{"ha":347,"x_min":26,"x_max":258,"o":"m 242 947 l 242 0 l 106 0 l 106 947 l 242 947 m 165 1214 l 258 1010 l 182 1010 l 26 1214 l 165 1214 z "},"Ñ":{"ha":1085,"x_min":103,"x_max":981,"o":"m 981 947 l 981 0 l 864 0 l 231 729 l 231 0 l 103 0 l 103 947 l 211 947 l 853 214 l 853 947 l 981 947 m 693 1199 l 746 1199 q 715 1080 746 1125 q 636 1035 685 1035 q 536 1059 597 1035 q 443 1083 475 1083 q 396 1035 403 1083 l 339 1035 q 447 1194 350 1194 q 556 1170 486 1194 q 643 1146 626 1146 q 693 1199 685 1146 z "},"Ó":{"ha":1143,"x_min":63,"x_max":1081,"o":"m 63 474 q 204 818 63 676 q 571 960 346 960 q 940 819 799 960 q 1081 474 1081 678 q 940 131 1081 274 q 568 -12 800 -12 q 203 131 343 -12 q 63 474 63 274 m 308 732 q 255 681 308 732 q 203 474 203 629 q 308 215 203 318 q 571 113 413 113 q 835 215 731 113 q 940 474 940 318 q 835 732 940 629 q 571 835 731 835 q 308 732 413 835 m 588 1214 l 726 1214 l 571 1010 l 494 1010 l 588 1214 z "},"Ô":{"ha":1143,"x_min":63,"x_max":1081,"o":"m 63 474 q 204 818 63 676 q 571 960 346 960 q 940 819 799 960 q 1081 474 1081 678 q 940 131 1081 274 q 568 -12 800 -12 q 203 131 343 -12 q 63 474 63 274 m 308 732 q 255 681 308 732 q 203 474 203 629 q 308 215 203 318 q 571 113 413 113 q 835 215 731 113 q 940 474 940 318 q 835 732 940 629 q 571 835 731 835 q 308 732 413 835 m 635 1218 l 765 1008 l 689 1008 l 568 1129 l 453 1008 l 379 1008 l 506 1218 l 635 1218 z "},"Ö":{"ha":1143,"x_min":63,"x_max":1081,"o":"m 63 474 q 204 818 63 676 q 571 960 346 960 q 940 819 799 960 q 1081 474 1081 678 q 940 131 1081 274 q 568 -12 800 -12 q 203 131 343 -12 q 63 474 63 274 m 308 732 q 255 681 308 732 q 203 474 203 629 q 308 215 203 318 q 571 113 413 113 q 835 215 731 113 q 940 474 940 318 q 835 732 940 629 q 571 835 731 835 q 308 732 413 835 m 397 1159 q 406 1168 397 1159 q 443 1178 415 1178 q 489 1160 471 1178 q 507 1114 507 1142 q 488 1067 507 1086 q 443 1049 469 1049 q 397 1067 415 1049 q 378 1114 378 1086 q 397 1159 378 1140 m 655 1159 q 664 1168 655 1159 q 701 1178 674 1178 q 747 1160 729 1178 q 765 1114 765 1142 q 747 1067 765 1086 q 701 1049 728 1049 q 655 1067 674 1049 q 636 1114 636 1086 q 655 1159 636 1140 z "},"Ò":{"ha":1143,"x_min":63,"x_max":1081,"o":"m 63 474 q 204 818 63 676 q 571 960 346 960 q 940 819 799 960 q 1081 474 1081 678 q 940 131 1081 274 q 568 -12 800 -12 q 203 131 343 -12 q 63 474 63 274 m 308 732 q 255 681 308 732 q 203 474 203 629 q 308 215 203 318 q 571 113 413 113 q 835 215 731 113 q 940 474 940 318 q 835 732 940 629 q 571 835 731 835 q 308 732 413 835 m 563 1214 l 656 1010 l 579 1010 l 424 1214 l 563 1214 z "},"Õ":{"ha":1143,"x_min":63,"x_max":1081,"o":"m 63 474 q 204 818 63 676 q 571 960 346 960 q 940 819 799 960 q 1081 474 1081 678 q 940 131 1081 274 q 568 -12 800 -12 q 203 131 343 -12 q 63 474 63 274 m 308 732 q 255 681 308 732 q 203 474 203 629 q 308 215 203 318 q 571 113 413 113 q 835 215 731 113 q 940 474 940 318 q 835 732 940 629 q 571 835 731 835 q 308 732 413 835 m 722 1199 l 775 1199 q 744 1080 775 1125 q 665 1035 714 1035 q 565 1059 626 1035 q 472 1083 504 1083 q 425 1035 432 1083 l 368 1035 q 476 1194 379 1194 q 585 1170 515 1194 q 672 1146 656 1146 q 722 1199 714 1146 z "},"Š":{"ha":636,"x_min":56,"x_max":592,"o":"m 554 893 l 554 739 q 332 838 450 838 q 224 806 267 838 q 182 725 182 775 q 213 647 182 683 q 288 587 243 611 q 387 530 333 563 q 485 463 440 497 q 561 372 531 429 q 592 244 592 315 q 517 60 592 133 q 326 -12 442 -12 q 61 75 178 -12 l 61 247 q 311 110 168 110 q 425 147 385 110 q 465 229 465 185 q 423 328 465 283 q 321 408 381 374 q 201 481 261 443 q 98 577 140 519 q 56 707 56 635 q 134 891 56 822 q 343 960 213 960 q 554 893 454 960 m 382 1010 l 253 1010 l 126 1219 l 200 1219 l 315 1099 l 436 1219 l 513 1219 l 382 1010 z "},"Ú":{"ha":983,"x_min":85,"x_max":900,"o":"m 900 947 l 900 372 q 793 90 900 193 q 479 -12 686 -12 q 200 82 315 -12 q 85 358 85 176 l 85 947 l 221 947 l 221 388 q 233 267 221 308 q 278 193 246 225 q 482 113 358 113 q 704 189 628 113 q 764 396 764 249 l 764 947 l 900 947 m 508 1214 l 647 1214 l 492 1010 l 415 1010 l 508 1214 z "},"Û":{"ha":983,"x_min":85,"x_max":900,"o":"m 900 947 l 900 372 q 793 90 900 193 q 479 -12 686 -12 q 200 82 315 -12 q 85 358 85 176 l 85 947 l 221 947 l 221 388 q 233 267 221 308 q 278 193 246 225 q 482 113 358 113 q 704 189 628 113 q 764 396 764 249 l 764 947 l 900 947 m 556 1218 l 686 1008 l 610 1008 l 489 1129 l 374 1008 l 300 1008 l 426 1218 l 556 1218 z "},"Ü":{"ha":983,"x_min":85,"x_max":900,"o":"m 900 947 l 900 372 q 793 90 900 193 q 479 -12 686 -12 q 200 82 315 -12 q 85 358 85 176 l 85 947 l 221 947 l 221 388 q 233 267 221 308 q 278 193 246 225 q 482 113 358 113 q 704 189 628 113 q 764 396 764 249 l 764 947 l 900 947 m 317 1159 q 327 1168 317 1159 q 364 1178 336 1178 q 410 1160 392 1178 q 428 1114 428 1142 q 409 1067 428 1086 q 364 1049 390 1049 q 317 1067 336 1049 q 299 1114 299 1086 q 317 1159 299 1140 m 576 1159 q 585 1168 576 1159 q 622 1178 594 1178 q 668 1160 650 1178 q 686 1114 686 1142 q 667 1067 686 1086 q 622 1049 649 1049 q 576 1067 594 1049 q 557 1114 557 1086 q 576 1159 557 1140 z "},"Ù":{"ha":983,"x_min":85,"x_max":900,"o":"m 900 947 l 900 372 q 793 90 900 193 q 479 -12 686 -12 q 200 82 315 -12 q 85 358 85 176 l 85 947 l 221 947 l 221 388 q 233 267 221 308 q 278 193 246 225 q 482 113 358 113 q 704 189 628 113 q 764 396 764 249 l 764 947 l 900 947 m 483 1214 l 576 1010 l 500 1010 l 344 1214 l 483 1214 z "},"Ý":{"ha":839,"x_min":0,"x_max":839,"o":"m 418 621 l 675 947 l 839 947 l 488 500 l 488 0 l 351 0 l 351 501 l 0 947 l 164 947 l 418 621 m 436 1214 l 575 1214 l 419 1010 l 343 1010 l 436 1214 z "},"Ÿ":{"ha":839,"x_min":0,"x_max":839,"o":"m 418 621 l 675 947 l 839 947 l 488 500 l 488 0 l 351 0 l 351 501 l 0 947 l 164 947 l 418 621 m 245 1159 q 255 1168 245 1159 q 292 1178 264 1178 q 338 1160 319 1178 q 356 1114 356 1142 q 337 1067 356 1086 q 292 1049 318 1049 q 245 1067 264 1049 q 226 1114 226 1086 q 245 1159 226 1140 m 503 1159 q 513 1168 503 1159 q 550 1178 522 1178 q 596 1160 578 1178 q 614 1114 614 1142 q 595 1067 614 1086 q 550 1049 576 1049 q 503 1067 522 1049 q 485 1114 485 1086 q 503 1159 485 1140 z "},"Ž":{"ha":897,"x_min":22,"x_max":876,"o":"m 625 825 l 60 825 l 60 947 l 876 947 l 274 122 l 876 122 l 876 0 l 22 0 l 625 825 m 513 1010 l 383 1010 l 257 1219 l 331 1219 l 446 1099 l 567 1219 l 643 1219 l 513 1010 z "},"á":{"ha":593,"x_min":36,"x_max":571,"o":"m 571 111 l 571 36 q 451 -12 497 -12 q 357 51 372 -12 q 189 -12 276 -12 q 79 33 122 -12 q 36 140 36 78 q 50 206 36 176 q 80 252 64 235 q 132 288 96 269 q 187 315 168 307 q 249 338 206 322 l 358 376 l 358 410 q 246 519 358 519 q 49 417 135 519 l 49 551 q 256 636 121 636 q 419 584 356 636 q 482 431 482 532 l 482 110 q 506 78 482 78 q 571 111 526 78 m 358 126 l 358 308 q 210 244 260 275 q 161 163 161 213 q 186 99 161 124 q 250 75 211 75 q 358 126 304 75 m 313 908 l 451 908 l 296 704 l 219 704 l 313 908 z "},"â":{"ha":593,"x_min":36,"x_max":571,"o":"m 571 111 l 571 36 q 451 -12 497 -12 q 357 51 372 -12 q 189 -12 276 -12 q 79 33 122 -12 q 36 140 36 78 q 50 206 36 176 q 80 252 64 235 q 132 288 96 269 q 187 315 168 307 q 249 338 206 322 l 358 376 l 358 410 q 246 519 358 519 q 49 417 135 519 l 49 551 q 256 636 121 636 q 419 584 356 636 q 482 431 482 532 l 482 110 q 506 78 482 78 q 571 111 526 78 m 358 126 l 358 308 q 210 244 260 275 q 161 163 161 213 q 186 99 161 124 q 250 75 211 75 q 358 126 304 75 m 332 913 l 463 703 l 386 703 l 265 824 l 150 703 l 76 703 l 203 913 l 332 913 z "},"ä":{"ha":593,"x_min":36,"x_max":571,"o":"m 571 111 l 571 36 q 451 -12 497 -12 q 357 51 372 -12 q 189 -12 276 -12 q 79 33 122 -12 q 36 140 36 78 q 50 206 36 176 q 80 252 64 235 q 132 288 96 269 q 187 315 168 307 q 249 338 206 322 l 358 376 l 358 410 q 246 519 358 519 q 49 417 135 519 l 49 551 q 256 636 121 636 q 419 584 356 636 q 482 431 482 532 l 482 110 q 506 78 482 78 q 571 111 526 78 m 358 126 l 358 308 q 210 244 260 275 q 161 163 161 213 q 186 99 161 124 q 250 75 211 75 q 358 126 304 75 m 94 853 q 103 863 94 853 q 140 872 113 872 q 186 854 168 872 q 204 808 204 836 q 185 762 204 781 q 140 743 167 743 q 94 762 113 743 q 75 808 75 781 q 94 853 75 835 m 352 853 q 361 863 352 853 q 399 872 371 872 q 444 854 426 872 q 463 808 463 836 q 444 762 463 781 q 399 743 425 743 q 352 762 371 743 q 333 808 333 781 q 352 853 333 835 z "},"à":{"ha":593,"x_min":36,"x_max":571,"o":"m 571 111 l 571 36 q 451 -12 497 -12 q 357 51 372 -12 q 189 -12 276 -12 q 79 33 122 -12 q 36 140 36 78 q 50 206 36 176 q 80 252 64 235 q 132 288 96 269 q 187 315 168 307 q 249 338 206 322 l 358 376 l 358 410 q 246 519 358 519 q 49 417 135 519 l 49 551 q 256 636 121 636 q 419 584 356 636 q 482 431 482 532 l 482 110 q 506 78 482 78 q 571 111 526 78 m 358 126 l 358 308 q 210 244 260 275 q 161 163 161 213 q 186 99 161 124 q 250 75 211 75 q 358 126 304 75 m 260 908 l 353 704 l 276 704 l 121 908 l 260 908 z "},"å":{"ha":593,"x_min":36,"x_max":571,"o":"m 571 111 l 571 36 q 451 -12 497 -12 q 357 51 372 -12 q 189 -12 276 -12 q 79 33 122 -12 q 36 140 36 78 q 50 206 36 176 q 80 252 64 235 q 132 288 96 269 q 187 315 168 307 q 249 338 206 322 l 358 376 l 358 410 q 246 519 358 519 q 49 417 135 519 l 49 551 q 256 636 121 636 q 419 584 356 636 q 482 431 482 532 l 482 110 q 506 78 482 78 q 571 111 526 78 m 358 126 l 358 308 q 210 244 260 275 q 161 163 161 213 q 186 99 161 124 q 250 75 211 75 q 358 126 304 75 m 178 922 q 198 941 178 922 q 269 960 217 960 q 360 922 322 960 q 399 831 399 883 q 360 740 399 778 q 269 701 322 701 q 178 740 217 701 q 140 831 140 778 q 178 922 140 883 m 324 884 q 313 895 324 884 q 269 907 301 907 q 215 884 238 907 q 193 831 193 861 q 215 777 193 800 q 269 754 238 754 q 324 777 301 754 q 346 831 346 800 q 324 884 346 861 z "},"ã":{"ha":593,"x_min":36,"x_max":571,"o":"m 571 111 l 571 36 q 451 -12 497 -12 q 357 51 372 -12 q 189 -12 276 -12 q 79 33 122 -12 q 36 140 36 78 q 50 206 36 176 q 80 252 64 235 q 132 288 96 269 q 187 315 168 307 q 249 338 206 322 l 358 376 l 358 410 q 246 519 358 519 q 49 417 135 519 l 49 551 q 256 636 121 636 q 419 584 356 636 q 482 431 482 532 l 482 110 q 506 78 482 78 q 571 111 526 78 m 358 126 l 358 308 q 210 244 260 275 q 161 163 161 213 q 186 99 161 124 q 250 75 211 75 q 358 126 304 75 m 419 893 l 472 893 q 442 774 472 819 q 363 729 411 729 q 263 753 324 729 q 169 778 201 778 q 122 729 129 778 l 65 729 q 174 889 76 889 q 283 865 213 889 q 369 840 353 840 q 419 893 411 840 z "},"é":{"ha":665,"x_min":57,"x_max":619,"o":"m 608 181 l 608 61 q 360 -12 497 -12 q 139 85 221 -12 q 57 319 57 183 q 138 549 57 461 q 349 636 219 636 q 548 549 476 636 q 619 293 619 463 l 181 293 q 390 106 210 106 q 608 181 493 106 m 183 375 l 497 375 q 456 488 494 446 q 351 529 417 529 q 183 375 210 529 m 349 908 l 488 908 l 332 704 l 256 704 l 349 908 z "},"ê":{"ha":665,"x_min":57,"x_max":619,"o":"m 608 181 l 608 61 q 360 -12 497 -12 q 139 85 221 -12 q 57 319 57 183 q 138 549 57 461 q 349 636 219 636 q 548 549 476 636 q 619 293 619 463 l 181 293 q 390 106 210 106 q 608 181 493 106 m 183 375 l 497 375 q 456 488 494 446 q 351 529 417 529 q 183 375 210 529 m 396 913 l 526 703 l 450 703 l 329 824 l 214 703 l 140 703 l 267 913 l 396 913 z "},"ë":{"ha":665,"x_min":57,"x_max":619,"o":"m 608 181 l 608 61 q 360 -12 497 -12 q 139 85 221 -12 q 57 319 57 183 q 138 549 57 461 q 349 636 219 636 q 548 549 476 636 q 619 293 619 463 l 181 293 q 390 106 210 106 q 608 181 493 106 m 183 375 l 497 375 q 456 488 494 446 q 351 529 417 529 q 183 375 210 529 m 158 853 q 167 863 158 853 q 204 872 176 872 q 250 854 232 872 q 268 808 268 836 q 249 762 268 781 q 204 743 231 743 q 158 762 176 743 q 139 808 139 781 q 158 853 139 835 m 416 853 q 425 863 416 853 q 463 872 435 872 q 508 854 490 872 q 526 808 526 836 q 508 762 526 781 q 463 743 489 743 q 416 762 435 743 q 397 808 397 781 q 416 853 397 835 z "},"è":{"ha":665,"x_min":57,"x_max":619,"o":"m 608 181 l 608 61 q 360 -12 497 -12 q 139 85 221 -12 q 57 319 57 183 q 138 549 57 461 q 349 636 219 636 q 548 549 476 636 q 619 293 619 463 l 181 293 q 390 106 210 106 q 608 181 493 106 m 183 375 l 497 375 q 456 488 494 446 q 351 529 417 529 q 183 375 210 529 m 324 908 l 417 704 l 340 704 l 185 908 l 324 908 z "},"í":{"ha":304,"x_min":75,"x_max":307,"o":"m 214 624 l 214 0 l 90 0 l 90 624 l 214 624 m 168 908 l 307 908 l 151 704 l 75 704 l 168 908 z "},"î":{"ha":304,"x_min":-40,"x_max":346,"o":"m 214 624 l 214 0 l 90 0 l 90 624 l 214 624 m 215 913 l 346 703 l 269 703 l 149 824 l 33 703 l -40 703 l 86 913 l 215 913 z "},"ï":{"ha":304,"x_min":-42,"x_max":346,"o":"m 214 624 l 214 0 l 90 0 l 90 624 l 214 624 m -23 853 q -14 863 -23 853 q 24 872 -4 872 q 69 854 51 872 q 88 808 88 836 q 69 762 88 781 q 24 743 50 743 q -23 762 -4 743 q -42 808 -42 781 q -23 853 -42 835 m 235 853 q 245 863 235 853 q 282 872 254 872 q 328 854 310 872 q 346 808 346 836 q 327 762 346 781 q 282 743 308 743 q 235 762 254 743 q 217 808 217 781 q 235 853 217 835 z "},"ì":{"ha":304,"x_min":4,"x_max":236,"o":"m 214 624 l 214 0 l 90 0 l 90 624 l 214 624 m 143 908 l 236 704 l 160 704 l 4 908 l 143 908 z "},"ñ":{"ha":694,"x_min":85,"x_max":610,"o":"m 208 624 l 208 542 l 211 542 q 397 636 286 636 q 550 572 490 636 q 610 385 610 507 l 610 0 l 486 0 l 486 386 q 453 497 486 456 q 364 538 419 538 q 208 447 289 538 l 208 0 l 85 0 l 85 624 l 208 624 m 499 893 l 551 893 q 521 774 551 819 q 442 729 490 729 q 342 753 403 729 q 249 778 281 778 q 201 729 208 778 l 144 729 q 253 889 156 889 q 362 865 292 889 q 449 840 432 840 q 499 893 490 840 z "},"ó":{"ha":767,"x_min":50,"x_max":717,"o":"m 379 636 q 622 547 526 636 q 717 318 717 457 q 623 79 717 171 q 379 -12 529 -12 q 143 81 236 -12 q 50 318 50 174 q 145 544 50 453 q 379 636 240 636 m 378 525 q 233 467 290 525 q 176 318 176 408 q 232 159 176 219 q 378 99 288 99 q 533 157 476 99 q 590 317 590 215 q 531 466 590 407 q 378 525 471 525 m 400 908 l 539 908 l 383 704 l 307 704 l 400 908 z "},"ô":{"ha":767,"x_min":50,"x_max":717,"o":"m 379 636 q 622 547 526 636 q 717 318 717 457 q 623 79 717 171 q 379 -12 529 -12 q 143 81 236 -12 q 50 318 50 174 q 145 544 50 453 q 379 636 240 636 m 378 525 q 233 467 290 525 q 176 318 176 408 q 232 159 176 219 q 378 99 288 99 q 533 157 476 99 q 590 317 590 215 q 531 466 590 407 q 378 525 471 525 m 447 913 l 578 703 l 501 703 l 381 824 l 265 703 l 192 703 l 318 913 l 447 913 z "},"ö":{"ha":767,"x_min":50,"x_max":717,"o":"m 379 636 q 622 547 526 636 q 717 318 717 457 q 623 79 717 171 q 379 -12 529 -12 q 143 81 236 -12 q 50 318 50 174 q 145 544 50 453 q 379 636 240 636 m 378 525 q 233 467 290 525 q 176 318 176 408 q 232 159 176 219 q 378 99 288 99 q 533 157 476 99 q 590 317 590 215 q 531 466 590 407 q 378 525 471 525 m 209 853 q 218 863 209 853 q 256 872 228 872 q 301 854 283 872 q 319 808 319 836 q 301 762 319 781 q 256 743 282 743 q 209 762 228 743 q 190 808 190 781 q 209 853 190 835 m 467 853 q 477 863 467 853 q 514 872 486 872 q 560 854 542 872 q 578 808 578 836 q 559 762 578 781 q 514 743 540 743 q 467 762 486 743 q 449 808 449 781 q 467 853 449 835 z "},"ò":{"ha":767,"x_min":50,"x_max":717,"o":"m 379 636 q 622 547 526 636 q 717 318 717 457 q 623 79 717 171 q 379 -12 529 -12 q 143 81 236 -12 q 50 318 50 174 q 145 544 50 453 q 379 636 240 636 m 378 525 q 233 467 290 525 q 176 318 176 408 q 232 159 176 219 q 378 99 288 99 q 533 157 476 99 q 590 317 590 215 q 531 466 590 407 q 378 525 471 525 m 375 908 l 468 704 l 392 704 l 236 908 l 375 908 z "},"õ":{"ha":767,"x_min":50,"x_max":717,"o":"m 379 636 q 622 547 526 636 q 717 318 717 457 q 623 79 717 171 q 379 -12 529 -12 q 143 81 236 -12 q 50 318 50 174 q 145 544 50 453 q 379 636 240 636 m 378 525 q 233 467 290 525 q 176 318 176 408 q 232 159 176 219 q 378 99 288 99 q 533 157 476 99 q 590 317 590 215 q 531 466 590 407 q 378 525 471 525 m 535 893 l 588 893 q 557 774 588 819 q 478 729 526 729 q 378 753 439 729 q 285 778 317 778 q 238 729 244 778 l 181 729 q 289 889 192 889 q 398 865 328 889 q 485 840 468 840 q 535 893 526 840 z "},"š":{"ha":535,"x_min":57,"x_max":479,"o":"m 450 585 l 450 463 q 269 528 351 528 q 210 512 232 528 q 188 471 188 496 q 222 422 188 450 q 339 346 256 394 q 448 256 417 294 q 479 171 479 218 q 421 38 479 89 q 274 -12 363 -12 q 57 44 167 -12 l 57 178 q 261 96 176 96 q 327 117 301 99 q 353 167 353 135 q 307 226 353 194 q 207 285 261 258 q 107 361 153 313 q 61 467 61 410 q 117 591 61 546 q 267 636 172 636 q 450 585 353 636 m 331 704 l 201 704 l 75 914 l 149 914 l 264 793 l 385 914 l 461 914 l 331 704 z "},"ú":{"ha":694,"x_min":83,"x_max":607,"o":"m 607 0 l 483 0 l 483 79 q 394 13 444 38 q 299 -12 344 -12 q 142 53 201 -12 q 83 236 83 119 l 83 624 l 207 624 l 207 228 q 335 90 207 90 q 483 178 421 90 l 483 624 l 607 624 l 607 0 m 364 908 l 503 908 l 347 704 l 271 704 l 364 908 z "},"û":{"ha":694,"x_min":83,"x_max":607,"o":"m 607 0 l 483 0 l 483 79 q 394 13 444 38 q 299 -12 344 -12 q 142 53 201 -12 q 83 236 83 119 l 83 624 l 207 624 l 207 228 q 335 90 207 90 q 483 178 421 90 l 483 624 l 607 624 l 607 0 m 411 913 l 542 703 l 465 703 l 344 824 l 229 703 l 156 703 l 282 913 l 411 913 z "},"ü":{"ha":694,"x_min":83,"x_max":607,"o":"m 607 0 l 483 0 l 483 79 q 394 13 444 38 q 299 -12 344 -12 q 142 53 201 -12 q 83 236 83 119 l 83 624 l 207 624 l 207 228 q 335 90 207 90 q 483 178 421 90 l 483 624 l 607 624 l 607 0 m 173 853 q 182 863 173 853 q 219 872 192 872 q 265 854 247 872 q 283 808 283 836 q 265 762 283 781 q 219 743 246 743 q 173 762 192 743 q 154 808 154 781 q 173 853 154 835 m 431 853 q 441 863 431 853 q 478 872 450 872 q 524 854 506 872 q 542 808 542 836 q 523 762 542 781 q 478 743 504 743 q 431 762 450 743 q 413 808 413 781 q 431 853 413 835 z "},"ù":{"ha":694,"x_min":83,"x_max":607,"o":"m 607 0 l 483 0 l 483 79 q 394 13 444 38 q 299 -12 344 -12 q 142 53 201 -12 q 83 236 83 119 l 83 624 l 207 624 l 207 228 q 335 90 207 90 q 483 178 421 90 l 483 624 l 607 624 l 607 0 m 339 908 l 432 704 l 356 704 l 200 908 l 339 908 z "},"ý":{"ha":608,"x_min":0,"x_max":608,"o":"m 608 624 l 167 -319 l 29 -319 l 242 133 l 0 624 l 140 624 l 308 272 l 469 624 l 608 624 m 321 908 l 460 908 l 304 704 l 228 704 l 321 908 z "},"ÿ":{"ha":608,"x_min":0,"x_max":608,"o":"m 608 624 l 167 -319 l 29 -319 l 242 133 l 0 624 l 140 624 l 308 272 l 469 624 l 608 624 m 130 853 q 139 863 130 853 q 176 872 149 872 q 222 854 204 872 q 240 808 240 836 q 222 762 240 781 q 176 743 203 743 q 130 762 149 743 q 111 808 111 781 q 130 853 111 835 m 388 853 q 398 863 388 853 q 435 872 407 872 q 481 854 463 872 q 499 808 499 836 q 480 762 499 781 q 435 743 461 743 q 388 762 407 743 q 369 808 369 781 q 388 853 369 835 z "},"ž":{"ha":579,"x_min":15,"x_max":563,"o":"m 561 624 l 229 111 l 563 111 l 563 0 l 15 0 l 346 513 l 29 513 l 29 624 l 561 624 m 353 704 l 224 704 l 97 914 l 171 914 l 286 793 l 407 914 l 483 914 l 353 704 z "}}}
